<svg xmlns="http://www.w3.org/2000/svg" viewBox="0 0 24.57816 24.58372">
  <defs>
    <style>
      .cls-1 {
        fill: #5588e6;
        stroke: #5588e6;
        stroke-miterlimit: 10;
        stroke-width: 0.5px;
      }

      .cls-2 {
        fill: #2af6ff;
      }
    </style>
  </defs>
  <title>Recurso 1</title>
  <g id="Capa_2" data-name="Capa 2">
    <g id="Capa_1-2" data-name="Capa 1">
      <g>
        <path class="cls-1" d="M12.28669.25A12.04186,12.04186,0,1,1,.25,12.28367,12.05547,12.05547,0,0,1,12.28669.25Zm1.936,13.51377a.65737.65737,0,0,0,.09588.04971,6.97663,6.97663,0,0,1,2.108,1.03934A7.08625,7.08625,0,0,1,18.40181,17.019a6.34834,6.34834,0,0,1,.738,1.79094,8.39787,8.39787,0,0,1,.18275.97619c.0401.36453.03729.73373.0553,1.1008a.5175.5175,0,0,0,.02819.10643.431.431,0,0,0,.09234-.045,11.17364,11.17364,0,0,0,3.384-4.79128,11.34533,11.34533,0,0,0,.51984-1.92712,11.064,11.064,0,0,0,.163-1.65033A11.25653,11.25653,0,0,0,16.68859,1.91974a11.39662,11.39662,0,0,0-4.32131-.88232,10.38041,10.38041,0,0,0-2.90956.37889,14.39718,14.39718,0,0,0-1.39819.46293A10.9,10.9,0,0,0,5.27066,3.52389,11.23159,11.23159,0,0,0,1.37779,9.6723a11.02149,11.02149,0,0,0-.28443,1.90331,11.25685,11.25685,0,0,0,4.01148,9.33972c.0226.01895.04808.03445.07533.05377.01037-.02173.01855-.031.01877-.04052.00241-.10351.00558-.20707.00476-.31058a6.99048,6.99048,0,0,1,.38809-2.34229,6.88486,6.88486,0,0,1,1.38584-2.37565,7.061,7.061,0,0,1,3.22846-2.0869.43045.43045,0,0,0,.08719-.05437,3.94286,3.94286,0,1,1,3.92938.005Zm-2.01677,9.77958c.46451-.02972.82807-.04878,1.1909-.0771a9.0392,9.0392,0,0,0,1.94091-.36586c.49269-.15057.97761-.33127,1.45542-.52468a9.87942,9.87942,0,0,0,1.71651-.93052.15742.15742,0,0,0,.07957-.1495c-.00347-.22139-.00589-.443-.00067-.66428a6.37821,6.37821,0,0,0-.45955-2.573,6.2921,6.2921,0,0,0-7.29789-3.76028,6.079,6.079,0,0,0-1.77446.72067,6.274,6.274,0,0,0-2.63481,3.12135,6.14839,6.14839,0,0,0-.4227,1.99967c-.01559.3601.00109.72154-.01116,1.08188a.27612.27612,0,0,0,.15293.27283,11.52534,11.52534,0,0,0,2.87527,1.34217,9.98556,9.98556,0,0,0,1.6146.36525C11.18544,23.4744,11.74574,23.50361,12.20592,23.54335Zm.08449-16.33057a3.14633,3.14633,0,1,0,3.148,3.13973A3.14254,3.14254,0,0,0,12.29041,7.21278Z"/>
        <path class="cls-2" d="M12.20592,23.54335c-.46017-.03973-1.02048-.06895-1.57512-.14143a9.98556,9.98556,0,0,1-1.6146-.36525A11.52534,11.52534,0,0,1,6.14091,21.6945a.27612.27612,0,0,1-.15293-.27283c.01225-.36034-.00443-.72178.01116-1.08188a6.14839,6.14839,0,0,1,.4227-1.99967,6.274,6.274,0,0,1,2.63481-3.12135,6.079,6.079,0,0,1,1.77446-.72067A6.31334,6.31334,0,0,1,18.129,18.25837a6.37821,6.37821,0,0,1,.45955,2.573c-.00522.22132-.0028.4429.00067.66428a.15742.15742,0,0,1-.07957.1495,9.87942,9.87942,0,0,1-1.71651.93052c-.47781.19341-.96272.37411-1.45542.52468a9.0392,9.0392,0,0,1-1.94091.36586C13.034,23.49457,12.67042,23.51363,12.20592,23.54335Z"/>
        <path class="cls-2" d="M12.29041,7.21278a3.14632,3.14632,0,1,1-3.14946,3.13831A3.14246,3.14246,0,0,1,12.29041,7.21278Z"/>
      </g>
    </g>
  </g>
</svg>
