<svg xmlns="http://www.w3.org/2000/svg" viewBox="0 0 17.19106 19.30047">
  <defs>
    <style>
      .cls-1 {
        fill: #5588e6;
      }

      .cls-2 {
        fill: #2af6ff;
      }
    </style>
  </defs>
  <title>Recurso 10</title>
  <g id="Capa_2" data-name="Capa 2">
    <g id="Capa_1-2" data-name="Capa 1">
      <g id="jyrfzQ.tif">
        <g>
          <path class="cls-1" d="M17.19106,19.30047H13.763V5.95239h3.42807Z"/>
          <path class="cls-1" d="M9.24092,19.24969V9.18491h3.38173V19.24969Z"/>
          <path class="cls-2" d="M13.91054,1.36776a2.34386,2.34386,0,0,1-.84034-.07119c-.23284-.1334-.53266-.40231-.53487-.61548a.81919.81919,0,0,1,.50493-.62728,14.16055,14.16055,0,0,1,2.52588.00525c.2057.01977.5007.43606.53088.696.07643.65844.015,1.33186.02968,1.99882.0107.48752-.14427.87647-.67342.88015-.48379.00336-.6845-.34608-.667-.81735.0024-.06483-.01632-.13044-.16611-.33276a7.93944,7.93944,0,0,1-.55335.70958,36.13223,36.13223,0,0,1-12.65664,8.5704,1.47362,1.47362,0,0,1-.69219.20091c-.26354-.04763-.63727-.21531-.70448-.41729-.06928-.20822.14338-.538.29181-.77806.06485-.10487.2776-.11689.42194-.17422A35.593,35.593,0,0,0,13.641,1.71349C13.71463,1.6351,13.77428,1.54359,13.91054,1.36776Z"/>
          <path class="cls-1" d="M4.86449,11.99356h3.367V19.266h-3.367Z"/>
          <path class="cls-1" d="M.37339,19.256V13.96176H3.75577V19.256Z"/>
        </g>
      </g>
    </g>
  </g>
</svg>
