<svg xmlns="http://www.w3.org/2000/svg" viewBox="0 0 25.16953 25.14425">
  <defs>
    <style>
      .cls-1 {
        fill: #5588e6;
        stroke: #5588e6;
        stroke-miterlimit: 10;
        stroke-width: 0.25px;
      }

      .cls-2 {
        fill: #2af6ff;
      }
    </style>
  </defs>
  <title>Recurso 2</title>
  <g id="Capa_2" data-name="Capa 2">
    <g id="Capa_1-2" data-name="Capa 1">
      <g id="_0azyK0.tif" data-name="0azyK0.tif">
        <g>
          <path class="cls-1" d="M6.45478,25.01925q-1.47889-.7303-2.95806-1.46005c-.996-.48869-1.992-.97727-2.99264-1.45634a.60376.60376,0,0,1-.37908-.6116q.00911-3.67406,0-7.34814a.60512.60512,0,0,1,.379-.61137c1.80027-.87184,3.59548-1.75412,5.39614-2.62515a.32464.32464,0,0,0,.21729-.34506c-.00667-2.29526.001-4.59057-.00861-6.88581a.66637.66637,0,0,1,.42787-.68045Q9.392,1.61717,12.23558.21488a.73659.73659,0,0,1,.71255.0041q2.8342,1.39341,5.67773,2.76778a.68536.68536,0,0,1,.43876.70065c-.01083,2.29523-.00275,4.59054-.00888,6.8858a.31091.31091,0,0,0,.20722.32719q2.66783,1.29113,5.32745,2.59911a2.51973,2.51973,0,0,1,.4541.37562v7.88361a2.36127,2.36127,0,0,1-.43146.36485c-1.01927.51034-2.04826,1.00125-3.072,1.50274-.9423.46159-1.882.9284-2.8229,1.39291h-.292c-.01037-.01177-.01842-.02829-.03144-.03464q-2.82544-1.37786-5.6545-2.74825a.43264.43264,0,0,0-.32907.01158c-1.03681.495-2.069.99986-3.10066,1.50557-.85578.41948-1.70926.84365-2.56376,1.26574Zm5.64505-10.18248a.36909.36909,0,0,0-.09118.01232Q9.60632,16.0177,7.20743,17.19334a.2726.2726,0,0,0-.1146.20263c-.01165.332-.00115.66474-.00532.99713a.49736.49736,0,0,1-.49594.54256.49054.49054,0,0,1-.47637-.53518c-.00435-.30806-.00981-.61658.00246-.9242a.30371.30371,0,0,0-.19821-.33334C4.388,16.40457,2.86092,15.65709,1.33236,14.9127c-.06757-.03291-.13747-.061-.22132-.098-.00415.06913-.00776.10125-.00777.13336-.0007,2.05954.00131,4.11908-.00615,6.17859-.0006.165.07725.22.20165.2804q2.29427,1.11331,4.58553,2.23283c.06711.03269.13662.06045.22851.10084,0-.1715-.00018-.30088,0-.43026.00024-.13784-.00085-.27571.00165-.41352a.49024.49024,0,1,1,.97315-.00468c.00259.27335.00053.54675.00053.85188.10708-.04793.18721-.08108.265-.119,1.50641-.73441,3.011-1.47257,4.52087-2.19976a.33951.33951,0,0,0,.23087-.36152c-.00833-1.99463-.00512-3.98932-.00512-5.984ZM7.10565,4.29885a.7328.7328,0,0,0-.01637.08714c-.00088,2.08378.00138,4.16756-.007,6.25131-.00067.16609.09232.20276.201.25572q2.29243,1.11691,4.58463,2.23427c.06783.033.13794.06143.222.09863.00438-.06851.00822-.10059.00824-.13268.00076-2.05946-.00132-4.11894.00644-6.17837.00063-.16584-.07785-.22166-.20159-.28153q-1.48672-.7193-2.97021-1.44526C8.33043,4.8947,7.7279,4.60168,7.10565,4.29885Zm5.96747,8.93054c.09245-.0383.1524-.05951.20919-.08719q2.31423-1.128,4.6295-2.25376a.27679.27679,0,0,0,.17707-.29671q-.00745-3.0405-.00386-6.081c0-.06064-.00761-.12127-.01292-.20063-.05755.02258-.095.03438-.13.05141C16.37035,5.1277,14.8,5.89679,13.2252,6.65685a.25714.25714,0,0,0-.15377.28488q.00427,1.81214.00168,3.62429C13.07312,11.44126,13.07312,12.31649,13.07312,13.22939Zm.02031,1.59289a.46968.46968,0,0,0-.0188.084c-.00054,2.08416.0017,4.16833-.00448,6.25247-.00045.15157.08383.19.18673.24013q2.3036,1.12282,4.60667,2.24672c.06333.03087.13032.05422.21062.08724.00487-.05833.01088-.09677.01089-.13521.00047-2.05984-.00239-4.11969.0056-6.1795.00067-.17236-.091-.21807-.20988-.276q-2.2824-1.11105-4.56367-2.22445C13.24653,14.88338,13.17258,14.85587,13.09343,14.82228Zm10.97781-.00564c-.06925.027-.10678.03871-.1417.05573-1.57151.76593-3.1414,1.53522-4.71631,2.29411-.15409.07425-.15571.17529-.15557.30808q.00317,3.01556.00293,6.03112c0,.06908.0069.13816.01165.22724.06441-.02555.10942-.04008.15152-.06059,1.56443-.76221,3.12743-1.52739,4.6948-2.28351a.25771.25771,0,0,0,.15433-.285q-.004-2.055-.00165-4.10992ZM7.74266,3.49731a.77916.77916,0,0,0,.08714.06663Q10.15259,4.7,12.47853,5.82952a.3517.3517,0,0,0,.26527-.02228q2.26211-1.09454,4.5184-2.20112a1.813,1.813,0,0,0,.1692-.1101c-1.59622-.78009-3.15835-1.54587-4.72514-2.302a.3838.3838,0,0,0-.28712.02575c-.74538.35469-1.48621.719-2.22806,1.08109C9.38475,2.69444,8.57875,3.0887,7.74266,3.49731Zm3.70048,10.525c-.057-.03537-.08742-.05813-.121-.07452q-2.2905-1.11947-4.584-2.23269a.37468.37468,0,0,0-.28626.00822Q4.18851,12.815,1.93228,13.92162c-.05322.026-.10107.06294-.16912.106.05915.03413.09216.05592.12741.07312,1.52023.74158,3.03951,1.48516,4.564,2.21784a.43164.43164,0,0,0,.32865-.01362q2.231-1.07517,4.4537-2.16751C11.29914,14.107,11.35808,14.07,11.44314,14.02227Zm2.28354-.01032a.81829.81829,0,0,0,.07691.05783c1.54912.75732,3.09735,1.51651,4.65085,2.26475a.41294.41294,0,0,0,.3085-.03179q2.22-1.07145,4.43344-2.15669c.06849-.03343.13287-.0753.21909-.12464-.05178-.03277-.0762-.05164-.10336-.06492-1.53471-.75006-3.0686-1.50185-4.60751-2.24319a.40783.40783,0,0,0-.30826.0224q-2.10021,1.01242-4.19332,2.03956C14.05283,13.84852,13.90368,13.92392,13.72668,14.01194Z"/>
          <path class="cls-2" d="M7.10565,4.29885c.62225.30283,1.22477.59585,1.82712.88924Q10.4176,5.9113,11.903,6.63335c.12375.05987.20222.11568.20159.28153-.00776,2.05944-.00568,4.11891-.00644,6.17837,0,.03209-.00385.06417-.00824.13268-.084-.0372-.15415-.06559-.222-.09863Q9.57543,12.01051,7.28329,10.893c-.1087-.053-.20169-.08963-.201-.25572.00839-2.08374.00613-4.16753.007-6.25131A.7328.7328,0,0,1,7.10565,4.29885Z"/>
          <path class="cls-2" d="M13.07312,13.22939c0-.91289,0-1.78813,0-2.66336q0-1.81215-.00168-3.62429a.25714.25714,0,0,1,.15377-.28488C14.8,5.89679,16.37035,5.1277,17.94213,4.36148c.03494-.017.07243-.02883.13-.05141.00531.07936.0129.14.01292.20063q.00093,3.04052.00386,6.081a.27679.27679,0,0,1-.17707.29671q-2.31771,1.12076-4.6295,2.25376C13.22552,13.16987,13.16557,13.19109,13.07312,13.22939Z"/>
          <path class="cls-2" d="M7.74266,3.49731c.83609-.4086,1.64209-.80286,2.44842-1.19645.74185-.36211,1.48267-.72639,2.22806-1.08109a.3838.3838,0,0,1,.28712-.02575c1.56679.75612,3.12892,1.5219,4.72514,2.302a1.813,1.813,0,0,1-.1692.1101q-2.25775,1.10355-4.5184,2.20112a.3517.3517,0,0,1-.26527.02228Q10.15028,4.70477,7.8298,3.56394A.77916.77916,0,0,1,7.74266,3.49731Z"/>
          <path class="cls-1" d="M7.08547,20.62831a.48489.48489,0,1,1-.4839-.47364A.49.49,0,0,1,7.08547,20.62831Z"/>
        </g>
      </g>
    </g>
  </g>
</svg>
