<svg xmlns="http://www.w3.org/2000/svg" viewBox="0 0 24.96792 23.72821">
  <defs>
    <style>
      .cls-1, .cls-3 {
        fill: #5588e6;
      }

      .cls-1 {
        stroke: #5588e6;
        stroke-miterlimit: 10;
        stroke-width: 0.5px;
      }

      .cls-2 {
        fill: #2af6ff;
      }
    </style>
  </defs>
  <title>Recurso 3</title>
  <g id="Capa_2" data-name="Capa 2">
    <g id="Capa_1-2" data-name="Capa 1">
      <g id="GBqo3V.tif">
        <g>
          <path class="cls-1" d="M18.32608.25h.3913a1.78241,1.78241,0,0,1,1.385,1.27853c.17988.6882.57533.85916,1.26136.82683A2.10626,2.10626,0,0,1,23.61929,4.5856q.00151,2.72259.00026,5.44519v.42635c.18473,0,.33416-.00645.48287.00123a.56312.56312,0,0,1,.61453.63764c.002.09778.00035.19563.00035.29345q0,2.41284-.00009,4.82568c-.00011.60383-.15053.75851-.74044.76322-.10616.00085-.21234.00012-.35722.00012v.38817q0,1.94005-.00036,3.88011a2.14867,2.14867,0,0,1-2.23977,2.23091q-9.43942.00113-18.87884.00007a2.14779,2.14779,0,0,1-2.25014-2.2533q-.00093-8.31451,0-16.629A2.15229,2.15229,0,0,1,2.497,2.337Q7.9585,2.3366,13.42,2.3299a1.80794,1.80794,0,0,0,.71208-.16277C15.5345,1.538,16.929.89108,18.32608.25Zm4.18867,7.20684H22.038q-8.81921,0-17.63842-.00006c-.10867,0-.21774.00489-.326-.0024a.53411.53411,0,0,1-.56171-.54811.52674.52674,0,0,1,.5534-.55438c.3254-.01453.65247.00683.97772-.00931a1.27468,1.27468,0,0,0,.46739-.10446Q8.311,4.92878,11.10428,3.604c.06987-.033.13248-.08139.27289-.16908h-.44562q-4.12432,0-8.24865.00023c-.10861,0-.21764-.002-.32576.00622A1.05526,1.05526,0,0,0,1.36,4.4223c-.01464.15105-.02147.30346-.0215.45525Q1.33689,12.91427,1.3377,20.951c0,.08693-.00236.17409.00286.26075A1.07844,1.07844,0,0,0,2.56578,22.369q4.8905.00048,9.781.00014,4.51556,0,9.03113-.00046a1.05876,1.05876,0,0,0,1.09374-.74747,2.15958,2.15958,0,0,0,.05789-.54853c.00471-1.26064.003-2.52132.00138-3.782-.00012-.09378-.01533-.18755-.02623-.3122h-.37409c-.96723,0-1.9345.00522-2.90169-.00125a3.25365,3.25365,0,0,1-.20452-6.49055c1.0304-.04476,2.06369-.02294,3.09569-.03059.126-.00093.25194-.00013.39465-.00013ZM20.983,6.32523c-.03379-.09529-.05426-.16659-.08369-.234q-.93087-2.13194-1.86444-4.2627c-.2084-.47432-.42094-.54516-.90026-.319Q14.118,3.40432,10.10139,5.29887c-.68.321-1.35808.64628-2.037.96959l.01708.05677Zm2.61375,5.271a.71282.71282,0,0,0-.12061-.02585c-1.41189-.00168-2.82395-.01517-4.23562.00252a1.97753,1.97753,0,0,0-1.67238.92433,2.16633,2.16633,0,0,0,1.82658,3.39109c1.30324.01035,2.60662.00309,3.90995.00187.094-.00009.188-.012.29207-.019Zm-2.627-8.1144c.40227.91762.79817,1.8291,1.2068,2.73484a.26573.26573,0,0,0,.228.111c.05311-.00943.11985-.13527.12141-.21055.01031-.49932.02157-.99969.00052-1.49836C22.4888,3.72762,21.90745,3.29789,20.96968,3.48183Z"/>
          <path class="cls-2" d="M20.983,6.32523H8.08144l-.01708-.05677c.679-.32331,1.357-.64859,2.037-.96959q4.01609-1.89572,8.03317-3.78936c.47933-.22613.69187-.15528.90026.319q.93575,2.1298,1.86444,4.2627C20.92869,6.15864,20.94916,6.22994,20.983,6.32523Z"/>
          <path class="cls-3" d="M19.86,14.54271a.82022.82022,0,0,1,.00169-1.64042.80891.80891,0,0,1,.82254.823A.79958.79958,0,0,1,19.86,14.54271Z"/>
        </g>
      </g>
    </g>
  </g>
</svg>
