<svg xmlns="http://www.w3.org/2000/svg" viewBox="0 0 25.09961 25.06175">
  <defs>
    <style>
      .cls-1 {
        fill: #5588e6;
      }

      .cls-2 {
        fill: #ffffff;
      }

      .cls-3 {
        fill: #2af6ff;
      }
    </style>
  </defs>
  <title>Recurso 4</title>
  <g id="Capa_2" data-name="Capa 2">
    <g id="Capa_1-2" data-name="Capa 1">
      <g id="u7n54W.tif">
        <g>
          <path class="cls-1" d="M.05553,9.08945A7.06436,7.06436,0,0,1,.25318,7.11471,8.89733,8.89733,0,0,1,.916,5.19563,9.12418,9.12418,0,0,1,2.89683,2.47308,7.55973,7.55973,0,0,1,4.35245,1.36377a14.849,14.849,0,0,1,1.3585-.7015A9.56509,9.56509,0,0,1,6.8355.298,8.74941,8.74941,0,0,1,9.6661.00965a7.37509,7.37509,0,0,1,2.03446.3537,12.26447,12.26447,0,0,1,1.81063.7513A8.28783,8.28783,0,0,1,15.561,2.64622a8.48035,8.48035,0,0,1,1.46542,1.91487,14.24514,14.24514,0,0,1,.681,1.50014,8.13358,8.13358,0,0,1,.51837,2.54123,11.99265,11.99265,0,0,1-.05321,1.4674,7.0004,7.0004,0,0,1-.36069,1.78066,7.91437,7.91437,0,0,1-.83315,1.84928c-.205.31693-.42176.62626-.631.94048a.2197.2197,0,0,0,.02418.31419c.25163.24473.4935.49966.74931.73982a.36321.36321,0,0,0,.24691.108,2.02413,2.02413,0,0,1,1.78161.71759c.96825.99381,1.96067,1.964,2.94054,2.94657.85806.86038,1.717,1.71993,2.567,2.58823a1.82667,1.82667,0,0,1,.307,1.89249A1.72288,1.72288,0,0,1,23.882,24.96649,1.86261,1.86261,0,0,1,22.60583,24.93a3.37477,3.37477,0,0,1-1.09263-.88755c-1.04726-1.03364-2.08382-2.07812-3.12372-3.1192Q17.36735,19.9,16.34722,18.87469a1.71221,1.71221,0,0,1-.49856-1.43207.48679.48679,0,0,0-.16562-.42968q-.34995-.33515-.68618-.6845a.20807.20807,0,0,0-.298-.0325c-.33149.22309-.65362.46085-.9923.67223a4.51591,4.51591,0,0,1-.71057.36212,14.284,14.284,0,0,1-1.46813.53461c-.464.12867-.94967.17953-1.4259.26407a7.7116,7.7116,0,0,1-2.57988-.07753,8.38291,8.38291,0,0,1-1.77445-.51479,9.07625,9.07625,0,0,1-4.20143-3.42281,8.48217,8.48217,0,0,1-.97981-1.963,9.69872,9.69872,0,0,1-.36386-1.41892C.10539,10.19131.06505,9.6405,0,9.09412Zm1.80762.02442A7.2752,7.2752,0,1,0,9.23033,1.81693,7.25639,7.25639,0,0,0,1.86315,9.11387Z"/>
          <path class="cls-2" d="M9.44263,3.04142a3.68978,3.68978,0,0,0-.45051.003.73448.73448,0,0,0-.55645.86827.74648.74648,0,0,0,.776.58092,4.479,4.479,0,0,1,1.76775.36924,4.65364,4.65364,0,0,1,1.33722.894A4.56256,4.56256,0,0,1,13.446,7.44857a4.43892,4.43892,0,0,1,.3059,1.58167.83085.83085,0,0,0,.17667.542.73206.73206,0,0,0,1.26839-.61063c-.046-.45274-.11013-.90482-.19259-1.35238a4.97,4.97,0,0,0-.83069-1.8976,6.07353,6.07353,0,0,0-4.731-2.67025Z"/>
          <path class="cls-3" d="M9.44263,3.04142a6.07353,6.07353,0,0,1,4.731,2.67025,4.97,4.97,0,0,1,.83069,1.8976c.08246.44756.14664.89965.19259,1.35238a.73206.73206,0,0,1-1.26839.61063.83085.83085,0,0,1-.17667-.542,4.43892,4.43892,0,0,0-.3059-1.58167,4.56256,4.56256,0,0,0-1.12934-1.69167,4.65364,4.65364,0,0,0-1.33722-.894,4.479,4.479,0,0,0-1.76775-.36924.74648.74648,0,0,1-.776-.58092.73448.73448,0,0,1,.55645-.86827A3.68978,3.68978,0,0,1,9.44263,3.04142Z"/>
        </g>
      </g>
    </g>
  </g>
</svg>
