<svg xmlns="http://www.w3.org/2000/svg" viewBox="0 0 20.41505 11.96997">
  <defs>
    <style>
      .cls-1 {
        fill: #5588e6;
      }

      .cls-2 {
        fill: #2af6ff;
      }
    </style>
  </defs>
  <title>Recurso 5</title>
  <g id="Capa_2" data-name="Capa 2">
    <g id="Capa_1-2" data-name="Capa 1">
      <g id="OS4SXN.tif">
        <g>
          <path class="cls-1" d="M20.415,7.9009c-.062.29006-.10536.58562-.189.8693a4.4612,4.4612,0,0,1-8.6234-.24152c-.01052-.04436-.025-.08779-.04562-.15951a1.61215,1.61215,0,0,1-2.69513.00219c-.0318.10554-.05914.18842-.08178.27256A4.46129,4.46129,0,0,1,.07181,8.28711C.05089,8.17112.02407,8.0562,0,7.94078V7.06357c.04357-.2127.07944-.42733.13213-.63775a4.38876,4.38876,0,0,1,.95548-1.83687C1.63225,3.96249,2.17847,3.33728,2.7324,2.719a3.8452,3.8452,0,0,1,1.98919-1.1811A.64.64,0,0,0,5.02071,1.345c.19444-.21747.36225-.45857.55347-.67915A1.90749,1.90749,0,0,1,8.925,2.00967a4.92905,4.92905,0,0,1-.15254.82009.4855.4855,0,0,0,.0797.46247,2.3599,2.3599,0,0,1,.18466.31418A1.2999,1.2999,0,0,1,10.207,2.87673a1.27874,1.27874,0,0,1,1.16338.73c.09887-.16325.19276-.30479.27082-.45459a.31183.31183,0,0,0,.01713-.1859c-.04305-.24148-.10021-.48045-.14319-.72194a1.89954,1.89954,0,0,1,1.043-2.0478A1.88714,1.88714,0,0,1,14.799.62279c.21807.24066.40559.50878.61787.75505a.48676.48676,0,0,0,.23758.14961,3.94472,3.94472,0,0,1,2.13375,1.31017c.45278.5302.91608,1.05166,1.38389,1.56869a4.54131,4.54131,0,0,1,1.20907,2.567.9398.9398,0,0,0,.03392.13016ZM4.45413,11.092A3.5881,3.5881,0,1,0,.87756,7.47384,3.58762,3.58762,0,0,0,4.45413,11.092Zm11.48806-.00013A3.58812,3.58812,0,1,0,12.3607,7.49841,3.59045,3.59045,0,0,0,15.94219,11.09182ZM10.19667,8.46017a.9565.9565,0,1,0-.94591-.9557A.95707.95707,0,0,0,10.19667,8.46017Z"/>
          <path class="cls-2" d="M4.45413,11.092A3.5881,3.5881,0,1,1,8.05429,7.49651,3.58569,3.58569,0,0,1,4.45413,11.092Z"/>
          <path class="cls-2" d="M15.94219,11.09182a3.58811,3.58811,0,1,1,3.595-3.5403A3.58659,3.58659,0,0,1,15.94219,11.09182Z"/>
        </g>
      </g>
    </g>
  </g>
</svg>
