<svg xmlns="http://www.w3.org/2000/svg" viewBox="0 0 20.12873 20.12445">
  <defs>
    <style>
      .cls-1 {
        fill: #5588e6;
      }

      .cls-2 {
        fill: #2af6ff;
      }
    </style>
  </defs>
  <title>Recurso 6</title>
  <g id="Capa_2" data-name="Capa 2">
    <g id="Capa_1-2" data-name="Capa 1">
      <g>
        <path class="cls-1" d="M5.12667,7.78959A1.62076,1.62076,0,0,0,7.712,7.1137c.30634-.57391.52187-1.19613.78176-1.79508.08287-.191.02431-.30219-.13988-.43452A2.7567,2.7567,0,0,1,7.96568.96294,2.7753,2.7753,0,0,1,11.95625.74153a2.74726,2.74726,0,0,1-.15616,4.12631.371.371,0,0,0-.14837.497c.25517.60193.46847,1.22467.76438,1.80553a1.57857,1.57857,0,0,0,1.77323,1.01073,5.89562,5.89562,0,0,0,.76-.28917,9.62609,9.62609,0,0,1-.29444-1.5035,2.65841,2.65841,0,0,1,1.755-2.54931,2.73734,2.73734,0,0,1,3.42166,3.805,2.64284,2.64284,0,0,1-1.719,1.395.37466.37466,0,0,0-.32108.33769c-.35617,1.71877-.73114,3.43369-1.10651,5.14843a1.78153,1.78153,0,0,1-1.7982,1.47632q-4.80165.01453-9.60337.00471a1.80144,1.80144,0,0,1-1.84312-1.51461c-.37045-1.68015-.73661-3.36137-1.08172-5.04683a.49062.49062,0,0,0-.4042-.42823A2.61622,2.61622,0,0,1,.05247,6.87792,2.6243,2.6243,0,0,1,.95766,4.3171,2.74237,2.74237,0,0,1,5.22277,7.57851C5.19308,7.64209,5.16458,7.70624,5.12667,7.78959ZM4.26242,9.541c.31549,1.48461.627,2.96993.95695,4.45113a.37012.37012,0,0,0,.28976.18841c3.0351.00681,6.07024.00035,9.10536.00159.20007.00008.28123-.06233.32155-.26788.1711-.87221.36377-1.74019.54968-2.60949.12559-.58728.25306-1.17416.38971-1.80771-.29719.12511-.53043.23107-.76928.32231a3.27029,3.27029,0,0,1-1.79107.198A3.57782,3.57782,0,0,1,10.837,8.1137c-.29513-.50963-.52252-1.05849-.7708-1.56965-.30507.58388-.56667,1.20115-.92832,1.75283A3.27063,3.27063,0,0,1,5.76673,9.979,11.28225,11.28225,0,0,1,4.26242,9.541ZM10.97864,2.7345A.911.911,0,1,0,9.157,2.7681a.90106.90106,0,0,0,.92209.88647A.92082.92082,0,0,0,10.97864,2.7345Zm-7.318,3.67057a.9394.9394,0,0,0-.91672-.91439.91136.91136,0,0,0-.00654,1.82262A.94071.94071,0,0,0,3.66061,6.40508Zm13.73456.90819a.91152.91152,0,1,0-.91981-.87584A.9402.9402,0,0,0,17.39517,7.31327Z"/>
        <path class="cls-1" d="M10.07072,18.29557q2.95244-.00062,5.90487.00129a.912.912,0,0,1,.28677,1.7891,1.42558,1.42558,0,0,1-.38136.03692q-5.817.00271-11.634.001a.921.921,0,1,1-.01084-1.82754Q7.15344,18.29481,10.07072,18.29557Z"/>
        <path class="cls-2" d="M4.26242,9.541A11.28225,11.28225,0,0,0,5.76673,9.979,3.27063,3.27063,0,0,0,9.1379,8.29688c.36165-.55168.62325-1.16895.92832-1.75283.24828.51117.47567,1.06.7708,1.56965a3.57782,3.57782,0,0,0,2.47806,1.90361,3.27029,3.27029,0,0,0,1.79107-.198c.23885-.09124.47209-.1972.76928-.32231-.13665.63355-.26411,1.22043-.38971,1.80771-.18591.86929-.37858,1.73728-.54968,2.60949-.04032.20555-.12148.268-.32155.26788-3.03513-.00124-6.07026.00522-9.10536-.00159a.37012.37012,0,0,1-.28976-.18841C4.88939,12.51089,4.57792,11.02557,4.26242,9.541Z"/>
        <path class="cls-2" d="M10.97864,2.7345a.92082.92082,0,0,1-.89954.92006A.90106.90106,0,0,1,9.157,2.7681a.911.911,0,1,1,1.82163-.03359Z"/>
        <path class="cls-2" d="M3.66061,6.40508a.94071.94071,0,0,1-.92326.90823.91136.91136,0,0,1,.00654-1.82262A.9394.9394,0,0,1,3.66061,6.40508Z"/>
        <path class="cls-2" d="M17.39517,7.31327a.91152.91152,0,1,1,.90268-.92878A.94022.94022,0,0,1,17.39517,7.31327Z"/>
      </g>
    </g>
  </g>
</svg>
