<svg xmlns="http://www.w3.org/2000/svg" viewBox="0 0 13.41383 19.50297">
  <defs>
    <style>
      .cls-1 {
        fill: #5588e6;
      }

      .cls-2 {
        fill: #2af6ff;
      }
    </style>
  </defs>
  <title>Recurso 7</title>
  <g id="Capa_2" data-name="Capa 2">
    <g id="Capa_1-2" data-name="Capa 1">
      <g>
        <path class="cls-1" d="M0,19.37783,3.42043,10.272H.16524a6.68272,6.68272,0,0,1,.16845-.67149q1.38643-3.70765,2.78092-7.4123c.10459-.27944.215-.50884.57789-.506,1.3405.01052,2.68112.005,4.02168.00887a2.0945,2.0945,0,0,1,.33306.0821L4.66289,7.9693H8.04276A6.4267,6.4267,0,0,1,7.74,8.55624Q4.19372,13.81565.63421,19.06608A2.53408,2.53408,0,0,1,.122,19.503Z"/>
        <path class="cls-2" d="M13.41383.06722,10.89274,4.74311H13.3014c.00607.49089-5.48448,8.554-5.98215,8.73419L9.93114,6.51076H7.41248c.071-.25182.10463-.41764.16388-.57373C8.25717,4.14342,8.95587,2.3564,9.61524.555a.71737.71737,0,0,1,.81527-.55381c.793.02888,1.58778.00545,2.38177.01039C12.98045.01261,13.14844.04169,13.41383.06722Z"/>
      </g>
    </g>
  </g>
</svg>
