<svg xmlns="http://www.w3.org/2000/svg" viewBox="0 0 12.59905 19.75699">
  <defs>
    <style>
      .cls-1 {
        fill: #5588e6;
        stroke: #5588e6;
        stroke-miterlimit: 10;
        stroke-width: 0.5px;
      }

      .cls-2 {
        fill: #2af6ff;
      }
    </style>
  </defs>
  <title>Recurso 8</title>
  <g id="Capa_2" data-name="Capa 2">
    <g id="Capa_1-2" data-name="Capa 1">
      <g id="MVkMIE.tif">
        <g>
          <path class="cls-1" d="M6.3001,12.34959A6.0498,6.0498,0,1,1,12.349,6.3078,6.04623,6.04623,0,0,1,6.3001,12.34959Zm5.11728-6.05591A5.11728,5.11728,0,1,0,6.5199,11.41161,5.1211,5.1211,0,0,0,11.41737,6.29368Z"/>
          <path class="cls-1" d="M8.35786,17.76052c.04028-.027.07106-.04561.09968-.0671.3354-.25184.66866-.50661,1.0076-.75358a.30647.30647,0,0,1,.19356-.05365c.42439.04227.8478.09424,1.27158.14268.02632.003.053.00271.09581.00471a1.06588,1.06588,0,0,0-.01761-.1306q-.24128-.90695-.485-1.81325-.24117-.89643-.48416-1.79238c-.07743-.28742-.15546-.57472-.22683-.86366a.13842.13842,0,0,1,.03625-.11927c.22855-.16231.46218-.31748.69488-.47391a.35624.35624,0,0,1,.06706-.02492c.04625.17173.091.33739.13546.50313q.17221.642.34416,1.28411.266.99495.53176,1.99.23937.89191.48108,1.78318c.06075.22531.12.451.18177.676.02126.07746-.02239.07875-.07686.07245-.34977-.04044-.69969-.07962-1.0493-.12145-.42016-.05027-.83978-.10536-1.26043-.151a.26038.26038,0,0,0-.1644.05323q-.90955.67294-1.81425,1.35246c-.02931.02189-.05982.04216-.11362.07992L6.3206,13.79638l-.0402-.00432L4.79257,19.339c-.12872-.09457-.23711-.173-.34426-.25312q-.78835-.58926-1.57542-1.1802a.26279.26279,0,0,0-.2063-.05434q-1.11885.13814-2.23852.26968c-.12788.01522-.12875.01029-.09625-.11152.17263-.647.34289-1.29465.516-1.94152.15826-.5914.32-1.18186.4785-1.77321.14529-.54224.28778-1.08523.43235-1.62766.06968-.26144.14113-.52242.21241-.78343a.72038.72038,0,0,1,.02831-.07115.79377.79377,0,0,1,.07422.03918c.21831.14757.43459.29822.655.4425a.11749.11749,0,0,1,.05936.15066q-.287,1.05242-.56947,2.10606-.2951,1.09734-.58834,2.19519-.02756.103-.05264.20657c-.01491.061.00382.089.07228.081.35307-.04148.70639-.08073,1.05961-.12095a.36113.36113,0,0,0,.03992-.00756.521.521,0,0,1,.49578.10787c.28175.23683.587.44572.88251.66617.032.0239.06465.047.1104.08026.02088-.05552.04191-.09978.05438-.14635q.33465-1.24969.66746-2.49986c.15869-.59465.31863-1.189.475-1.78422.01825-.06946.04991-.09631.12059-.08866a7.14854,7.14854,0,0,0,1.49088.00075.09285.09285,0,0,1,.116.08073q.29662,1.12323.59715,2.24542.27339,1.02446.5482,2.04853C8.31982,17.66065,8.33806,17.70384,8.35786,17.76052Z"/>
          <path class="cls-2" d="M2.224,4.98265a1.06885,1.06885,0,0,1,.1329-.03939c.57611-.08277,1.1525-.16352,1.72864-.246.29146-.04175.583-.08331.87325-.13247A.17824.17824,0,0,0,5.06841,4.477c.33912-.68054.67407-1.36316,1.0102-2.04519.05529-.11218.11067-.22436.16886-.335a.31322.31322,0,0,1,.05635-.06065.338.338,0,0,1,.04783.05882q.4299.86767.85791,1.73628c.10617.21514.20843.43234.32111.644a.201.201,0,0,0,.12836.09126c.69224.1063,1.38531.20722,2.07836.30814.16076.02341.32239.04085.48325.06365.04734.00671.0934.02239.16142.03926-.04066.04405-.06177.06913-.08512.09191Q9.367,5.97666,8.43562,6.88233a.21009.21009,0,0,0-.06572.21482c.10291.57289.19785,1.14721.29538,1.72106q.074.4352.14759.87046c.00269.01595.003.0323.006.0662a.419.419,0,0,1-.088-.022Q7.68942,9.18649,6.649,8.63819a.66545.66545,0,0,1-.10791-.05566.40209.40209,0,0,0-.49761.00238c-.716.3881-1.43986.76163-2.16117,1.1399a1.0547,1.0547,0,0,1-.1075.04022c.03044-.1947.05544-.36724.08464-.53906q.15478-.9108.312-1.82118a2.72789,2.72789,0,0,1,.05744-.30919.20038.20038,0,0,0-.07172-.22284Q3.53283,6.26992,2.91253,5.6629q-.30175-.29372-.6033-.58764C2.28561,5.0522,2.26438,5.0267,2.224,4.98265Zm6.14293.65116a.29861.29861,0,0,0-.05124-.02106c-.40828-.06085-.81618-.12456-1.22532-.179A.22757.22757,0,0,1,6.888,5.29623c-.175-.36573-.356-.72858-.53618-1.09178a.34211.34211,0,0,0-.05455-.064.44362.44362,0,0,0-.05145.068q-.27191.54964-.54113,1.1006a.19148.19148,0,0,1-.15917.12054c-.40553.05585-.81026.11759-1.21519.17774-.02868.00426-.05678.01248-.10338.023.03335.03687.05385.06207.07693.08466.29025.28405.57918.5695.87276.85007a.18892.18892,0,0,1,.05768.19717c-.07136.379-.13593.75936-.20093,1.13957a1.51831,1.51831,0,0,0-.00838.17088c.40576-.21343.78881-.41293,1.1695-.61686a.19826.19826,0,0,1,.20926-.00242c.19843.1089.39912.21371.5994.31922.18411.097.36885.19278.57491.30037-.00349-.06006-.0021-.099-.0085-.13661-.067-.39354-.1329-.78732-.20526-1.17989a.18234.18234,0,0,1,.05606-.18884c.19194-.18118.38023-.36626.56822-.55157C8.1134,5.893,8.23526,5.76707,8.36694,5.63381Z"/>
        </g>
      </g>
    </g>
  </g>
</svg>
