<svg xmlns="http://www.w3.org/2000/svg" viewBox="0 0 14.69895 19.61576">
  <defs>
    <style>
      .cls-1 {
        fill: #5588e6;
      }

      .cls-2 {
        fill: #2af6ff;
      }
    </style>
  </defs>
  <title>Recurso 9</title>
  <g id="Capa_2" data-name="Capa 2">
    <g id="Capa_1-2" data-name="Capa 1">
      <g>
        <path class="cls-1" d="M8.27374,19.61576H6.47563c-.43735-.08366-.87921-.14876-1.31129-.25405A6.193,6.193,0,0,1,.3184,15.05951a7.06909,7.06909,0,0,1,.58475-5.533C1.6161,8.16959,2.47024,6.88725,3.25129,5.56567A8.9245,8.9245,0,0,0,4.59578,0h.08173c.38587.29543.79941.56123,1.15289.89133A9.30094,9.30094,0,0,1,8.51029,6.60853c.08666.58571.10313,1.1818.15972,1.869A4.417,4.417,0,0,0,9.89894,3.78c.126.073.19844.10806.26348.15365A9.64029,9.64029,0,0,1,14.6122,13.4962a6.524,6.524,0,0,1-4.45306,5.64563A17.38554,17.38554,0,0,1,8.27374,19.61576ZM8.44339,10.664A8.98766,8.98766,0,0,1,5.815,14.10335a3.87751,3.87751,0,0,0-.464.51457A2.06321,2.06321,0,0,0,6.38294,17.855a2.54625,2.54625,0,0,0,2.87359-1.015A4.79176,4.79176,0,0,0,8.44339,10.664Z"/>
        <path class="cls-2" d="M8.44339,10.664a4.79176,4.79176,0,0,1,.81314,6.17611,2.54625,2.54625,0,0,1-2.87359,1.015A2.06321,2.06321,0,0,1,5.351,14.61792a3.87751,3.87751,0,0,1,.464-.51457A8.98766,8.98766,0,0,0,8.44339,10.664Z"/>
      </g>
    </g>
  </g>
</svg>
