<svg xmlns="http://www.w3.org/2000/svg" viewBox="0 0 14.04 13.53"><defs><style>.cls-1{fill:#5588e6;}.cls-2{fill:#f8f7fc;}</style></defs><g id="Capa_2" data-name="Capa 2"><g id="Capa_1-2" data-name="Capa 1"><g id="_7IEwvO.tif" data-name="7IEwvO.tif"><path class="cls-1" d="M1,10.68a3,3,0,0,0-1-3.61C0,7,0,6.64.06,6.46A1.26,1.26,0,0,1,.48,6a2.36,2.36,0,0,0,.73-2.64c-.13-.57,0-.93.62-.95A2.71,2.71,0,0,0,4.41.45c.19-.48.5-.57.93-.3l.06,0a2.64,2.64,0,0,0,3.14,0C9-.12,9.33,0,9.52.48l.07.11A2.5,2.5,0,0,0,12,2.34c.69,0,.88.37.71,1.07A2.49,2.49,0,0,0,13.48,6c.75.66.75.81,0,1.46a2.59,2.59,0,0,0-.78,2.81c.11.47,0,.8-.53.83l-.07,0a2.76,2.76,0,0,0-2.63,1.94c-.17.46-.46.55-.87.3a.69.69,0,0,0-.13-.05,2.6,2.6,0,0,0-3.08,0c-.45.3-.83.25-1-.31a2.82,2.82,0,0,0-2.66-1.92C1.49,11.09,1.28,10.84,1,10.68Z"/><path class="cls-2" d="M5.61,7.85,8.78,4.68c.58-.58,1-.65,1.35-.25s.33.85-.2,1.38L6.5,9.26c-.64.63-1,.62-1.63,0L3.61,8a.75.75,0,0,1,0-1.18.73.73,0,0,1,1.12,0C5,7.13,5.28,7.46,5.61,7.85Z"/></g></g></g></svg>
