<?xml version="1.0" encoding="utf-8"?>
<!-- Generator: Adobe Illustrator 25.4.1, SVG Export Plug-In . SVG Version: 6.00 Build 0)  -->
<svg version="1.1" id="Layer_1" xmlns="http://www.w3.org/2000/svg" xmlns:xlink="http://www.w3.org/1999/xlink" x="0px" y="0px"
	 viewBox="0 0 74.9 74.9" style="enable-background:new 0 0 74.9 74.9;" xml:space="preserve">
<style type="text/css">
	.st0{fill:#2AF6FF;}
	.st1{fill:#1823F1;}
	.st2{fill:none;stroke:#1823F1;stroke-width:2.2943;stroke-miterlimit:10;}
</style>
<path class="st0" d="M44.1,15.8h-0.7H30.7c-0.9,0-1.5,0.7-1.5,1.5v28.1c0,0.9,0.7,1.5,1.5,1.5h12.7h0.7C52.3,46.9,59,40.3,59,32
	v-1.3C59,22.5,52.3,15.8,44.1,15.8z M51,31.7c0,4.5-3.1,8.1-7,8.1h-0.3h-6c-0.4,0-0.7-0.4-0.7-0.8V23.7c0-0.5,0.3-0.8,0.7-0.8h6H44
	c3.9,0,7,3.6,7,8.1V31.7z"/>
<path class="st1" d="M70.5,5.3c0-0.9-0.8-1.7-1.7-1.7H18c-0.4,0-0.7,0.1-1,0.3l0,0l0,0c-0.1,0.1-0.2,0.2-0.3,0.3
	C14.7,6.2,4.2,16.4,4,16.6c-0.3,0.3-0.5,0.7-0.5,1.2v50.9c0,0.9,0.8,1.7,1.7,1.7H56c0.4,0,0.9-0.2,1.2-0.5
	c0.3-0.3,11.2-11,12.8-12.6c0.1,0,0.1-0.1,0.1-0.1c0,0,0,0,0,0l0,0c0.3-0.3,0.4-0.7,0.4-1.1V5.3z M19,6.3h48.8v48.8H19V6.3z
	 M16.3,8.4v47.3L6.2,65.8V18.3C7.2,17.3,12.7,11.9,16.3,8.4z M55.6,67.7H8.1l9.9-9.9c0,0,0,0,0,0h47.7
	C62.1,61.4,56.6,66.8,55.6,67.7z"/>
<path class="st1" d="M44.1,18.5c6.8,0,12.3,5.5,12.3,12.3V32c0,6.8-5.5,12.3-12.3,12.3h-0.7H31.8V18.5h11.6H44.1 M44.1,15.8
	L44.1,15.8h-0.7H30.7c-0.9,0-1.5,0.7-1.5,1.5v28.1c0,0.9,0.7,1.5,1.5,1.5h12.7h0.7h0C52.3,46.9,59,40.3,59,32v-1.3
	C59,22.5,52.3,15.8,44.1,15.8L44.1,15.8z"/>
<path class="st1" d="M44,25.6c2.4,0,4.3,2.5,4.3,5.5v0.7c0,3-1.9,5.5-4.3,5.5h-0.3h-4V25.6h4H44 M44,22.9L44,22.9h-0.3h-6
	c-0.4,0-0.7,0.4-0.7,0.8V39c0,0.5,0.3,0.8,0.7,0.8h6H44h0c3.9,0,7-3.6,7-8.1V31C51,26.5,47.8,22.9,44,22.9L44,22.9z"/>
<path class="st2" d="M29.1,32"/>
</svg>
