<?xml version="1.0" encoding="utf-8"?>
<!-- Generator: Adobe Illustrator 25.0.0, SVG Export Plug-In . SVG Version: 6.00 Build 0)  -->
<svg version="1.1" id="Capa_1" xmlns="http://www.w3.org/2000/svg" xmlns:xlink="http://www.w3.org/1999/xlink" x="0px" y="0px"
	 viewBox="0 0 135.8 73.2" style="enable-background:new 0 0 135.8 73.2;" xml:space="preserve">
<style type="text/css">
	.st0{fill:#5588e6;}
	.st1{fill:#2AF6FF;stroke:#5588e6;stroke-width:2;stroke-linecap:round;stroke-linejoin:round;}
	.st2{fill:none;stroke:#5588e6;stroke-width:2;stroke-linecap:round;stroke-linejoin:round;}
</style>
<g id="Capa_2_1_">
	<g id="Capa_1-2">
		<g>
			<path class="st0" d="M40.3,33.7H8.9c-0.6,0-1.1-0.5-1.1-1.1V1.1C7.7,0.5,8.2,0,8.9,0h31.4c0.6,0,1.1,0.5,1.1,1.1v31.4
				C41.4,33.2,40.9,33.7,40.3,33.7z M10,31.4h29.2V2.3H10V31.4z"/>
			<path class="st0" d="M1.1,41.4c-0.6,0-1.1-0.5-1.1-1.1c0-0.3,0.1-0.6,0.3-0.8l7.7-7.7c0.4-0.4,1.2-0.4,1.6,0
				c0.4,0.4,0.4,1.2,0,1.6l-7.7,7.7C1.7,41.3,1.4,41.4,1.1,41.4z"/>
			<path class="st0" d="M1.1,40.9L1.1,40.9c-0.6,0-1.1-0.5-1.1-1.1l0.1-31c0-0.3,0.1-0.6,0.3-0.8l7.7-7.7c0.4-0.4,1.2-0.4,1.6,0
				c0.4,0.4,0.4,1.2,0,1.6L2.3,9.3L2.3,39.8C2.3,40.4,1.8,40.9,1.1,40.9z"/>
			<path class="st0" d="M31.8,73.2L31.8,73.2c-0.6,0-1.1-0.5-1.1-1.1c0,0,0,0,0,0l0.1-31c0-0.6,0.5-1.1,1.1-1.1c0,0,0,0,0,0
				c0.6,0,1.1,0.5,1.1,1.1l-0.1,31C32.9,72.7,32.4,73.2,31.8,73.2z"/>
			<path class="st1" d="M16.8,8.5h6.8c6.2,0,9.8,3.6,9.8,8.6v0c0,5-3.7,8.8-9.9,8.8h-6.7V8.5z M21.6,12.8v8.9h2
				c2.9,0,4.8-1.6,4.8-4.4v0c0-2.8-1.9-4.4-4.8-4.4L21.6,12.8z"/>
			<path class="st0" d="M71.8,33.7H40.4c-0.6,0-1.1-0.5-1.1-1.1V1.1c0-0.6,0.5-1.1,1.1-1.1h31.4C72.5,0,73,0.5,73,1.1c0,0,0,0,0,0
				v31.4C73,33.2,72.5,33.7,71.8,33.7C71.8,33.7,71.8,33.7,71.8,33.7z M41.5,31.4h29.2V2.3H41.5V31.4z"/>
			<path class="st2" d="M53.9,8.5h4.8V26h-4.8V8.5z"/>
			<path class="st0" d="M103.2,33.8H71.7c-0.6,0-1.1-0.5-1.1-1.1c0,0,0,0,0,0V1.2c0-0.6,0.5-1.1,1.1-1.1c0,0,0,0,0,0h31.4
				c0.6,0,1.1,0.5,1.1,1.1c0,0,0,0,0,0v31.4C104.3,33.3,103.8,33.8,103.2,33.8C103.2,33.8,103.2,33.8,103.2,33.8z M72.9,31.5H102
				V2.3H72.9V31.5z"/>
			<path class="st2" d="M79,17.4L79,17.4c0-5,4-9.1,9-9.1c0.1,0,0.2,0,0.3,0c2.6-0.1,5.1,0.8,7.1,2.5l-2.8,3.4
				c-1.1-1.1-2.6-1.7-4.2-1.6c-2.5,0.1-4.5,2.1-4.5,4.7c0,0,0,0.1,0,0.1v0c-0.1,2.5,1.8,4.7,4.4,4.9c0.1,0,0.2,0,0.4,0
				c1,0,2-0.2,2.8-0.7v-2.1h-3.4v-3.5h8v7.8c-2.1,1.8-4.8,2.7-7.6,2.7C83,26.4,79,22.7,79,17.4z"/>
			<path class="st0" d="M134.7,33.8h-31.4c-0.6,0-1.1-0.5-1.1-1.1c0,0,0,0,0,0V1.2c0-0.6,0.5-1.1,1.1-1.1c0,0,0,0,0,0h31.4
				c0.6,0,1.1,0.5,1.1,1.1c0,0,0,0,0,0v31.4C135.8,33.3,135.3,33.8,134.7,33.8C134.7,33.8,134.7,33.8,134.7,33.8z M104.4,31.5h29.2
				V2.3h-29.2L104.4,31.5z"/>
			<path class="st2" d="M116.8,8.6h4.8v17.4h-4.8V8.6z"/>
			<path class="st0" d="M71.6,65.2H40.2c-0.6,0-1.1-0.5-1.1-1.1V32.6c0-0.6,0.5-1.1,1.1-1.1h31.4c0.6,0,1.1,0.5,1.1,1.1c0,0,0,0,0,0
				V64C72.7,64.7,72.2,65.2,71.6,65.2C71.6,65.2,71.6,65.2,71.6,65.2z M41.3,62.9h29.2V33.7H41.3V62.9z"/>
			<path class="st2" d="M48.7,40h8.9c1.7-0.1,3.4,0.4,4.8,1.5c0.7,0.8,1.1,1.8,1.1,2.8v0c0,1.7-1.1,3.3-2.7,3.9
				c2.1,0.7,3.5,1.9,3.5,4.3v0c0,3-2.4,4.8-6.6,4.8h-9L48.7,40z M58.8,45.4c0-1-0.8-1.5-2.2-1.5h-3.2V47h3
				C57.9,47,58.8,46.5,58.8,45.4L58.8,45.4z M57.1,50.3h-3.7v3.2h3.7c1.5,0,2.3-0.6,2.3-1.6v0C59.5,51,58.7,50.3,57.1,50.3
				L57.1,50.3z"/>
			<path class="st0" d="M103.1,65.2H71.7c-0.6,0-1.1-0.5-1.1-1.1c0,0,0,0,0,0V32.6c0-0.6,0.5-1.1,1.1-1.1c0,0,0,0,0,0h31.4
				c0.6,0,1.1,0.5,1.1,1.1c0,0,0,0,0,0V64C104.3,64.7,103.8,65.2,103.1,65.2C103.1,65.2,103.1,65.2,103.1,65.2z M72.8,62.9H102V33.7
				H72.8V62.9z"/>
			<path class="st2" d="M81.5,40h4.8v13.2h8.4v4.2H81.5V40z"/>
			<path class="st0" d="M134.7,65.2h-31.6c-0.6,0-1.1-0.5-1.1-1.1c0,0,0,0,0,0V32.6c0-0.6,0.5-1.1,1.1-1.1c0,0,0,0,0,0h31.6
				c0.6,0,1.1,0.5,1.1,1.1c0,0,0,0,0,0V64C135.8,64.7,135.3,65.2,134.7,65.2C134.7,65.2,134.7,65.2,134.7,65.2z M104.2,62.9h29.3
				V33.7h-29.3V62.9z"/>
			<path class="st2" d="M112.2,40h14v4.1H117v2.7h8.4v3.8H117v2.8h9.4v4.1h-14.2V40z"/>
			<path class="st0" d="M31.8,73.2c-0.6,0-1.1-0.5-1.1-1.1c0-0.6,0.5-1.1,1.1-1.1l95-0.1h0c0.6,0,1.1,0.5,1.1,1.1
				c0,0.6-0.5,1.1-1.1,1.1L31.8,73.2L31.8,73.2z"/>
			<path class="st0" d="M126.8,72.9c-0.6,0-1.1-0.5-1.1-1.1c0-0.3,0.1-0.6,0.3-0.8l7.7-7.7c0.4-0.4,1.2-0.4,1.6,0
				c0.4,0.4,0.4,1.2,0,1.6l0,0l-7.7,7.7C127.4,72.8,127.1,72.9,126.8,72.9z"/>
			<path class="st0" d="M95.8,72.9c-0.6,0-1.1-0.5-1.1-1.1c0-0.3,0.1-0.6,0.3-0.8l7.7-7.7c0.4-0.4,1.2-0.4,1.6,0
				c0.4,0.4,0.4,1.2,0,1.6l0,0l-7.7,7.7C96.4,72.8,96.1,72.9,95.8,72.9z"/>
			<path class="st0" d="M64.1,72.9c-0.6,0-1.1-0.5-1.1-1.1c0-0.3,0.1-0.6,0.3-0.8l7.7-7.7c0.4-0.4,1.2-0.4,1.6,0
				c0.4,0.4,0.4,1.2,0,1.6l0,0l-7.7,7.7C64.7,72.8,64.4,72.9,64.1,72.9z"/>
			<path class="st0" d="M31.8,41.8c-0.6,0-1.1-0.5-1.1-1.1c0-0.3,0.1-0.6,0.3-0.8l7.7-7.7c0.4-0.4,1.2-0.4,1.6,0
				c0.4,0.4,0.4,1.2,0,1.6l-7.7,7.7C32.4,41.7,32.1,41.8,31.8,41.8z"/>
			<path class="st0" d="M32.4,72.6c-0.6,0-1.1-0.5-1.1-1.1c0-0.3,0.1-0.6,0.3-0.8l7.7-7.7c0.4-0.4,1.2-0.4,1.6,0s0.4,1.2,0,1.6
				l-7.7,7.7C33,72.5,32.7,72.6,32.4,72.6z"/>
			<path class="st0" d="M31.8,41.7H1.1c-0.6,0-1.1-0.5-1.1-1.1s0.5-1.1,1.1-1.1c0,0,0,0,0,0h30.7c0.6,0,1.1,0.5,1.1,1.1
				C32.9,41.2,32.4,41.7,31.8,41.7z"/>
		</g>
	</g>
</g>
</svg>
