<?xml version="1.0" encoding="utf-8"?>
<!-- Generator: Adobe Illustrator 25.4.1, SVG Export Plug-In . SVG Version: 6.00 Build 0)  -->
<svg version="1.1" id="Layer_1" xmlns="http://www.w3.org/2000/svg" xmlns:xlink="http://www.w3.org/1999/xlink" x="0px" y="0px"
	 viewBox="0 0 74.9 74.9" style="enable-background:new 0 0 74.9 74.9;" xml:space="preserve">
<path style="fill:#FFFFFF;" d="M70.7,5.9c0-0.9-0.8-1.7-1.7-1.7H18.8c-0.4,0-0.7,0.1-1,0.3l0,0l0,0c-0.1,0.1-0.2,0.2-0.3,0.3
	C15.5,6.8,5.3,16.8,5,17.1c-0.3,0.3-0.5,0.7-0.5,1.2v50.2c0,0.9,0.8,1.7,1.7,1.7h50.2c0.4,0,0.8-0.2,1.1-0.4
	c0.3-0.3,11.1-10.9,12.6-12.4c0,0,0.1-0.1,0.1-0.1c0,0,0,0,0,0l0,0c0.2-0.3,0.4-0.7,0.4-1.1V5.9z"/>
<path style="fill:#2AF6FF;" d="M44.6,16.3h-0.7H31.4c-0.8,0-1.5,0.7-1.5,1.5v27.7c0,0.8,0.7,1.5,1.5,1.5h12.6h0.7
	c8.1,0,14.7-6.6,14.7-14.7V31C59.3,22.9,52.7,16.3,44.6,16.3z M51.4,32c0,4.4-3.1,8-6.9,8h-0.3h-5.9c-0.4,0-0.7-0.4-0.7-0.8V24.1
	c0-0.5,0.3-0.8,0.7-0.8h5.9h0.3c3.8,0,6.9,3.6,6.9,8V32z"/>
<path style="fill:#1823F1;" d="M70.7,5.9c0-0.9-0.8-1.7-1.7-1.7H18.8c-0.4,0-0.7,0.1-1,0.3l0,0l0,0c-0.1,0.1-0.2,0.2-0.3,0.3
	C15.5,6.8,5.3,16.8,5,17.1c-0.3,0.3-0.5,0.7-0.5,1.2v50.2c0,0.9,0.8,1.7,1.7,1.7h50.2c0.4,0,0.8-0.2,1.1-0.4
	c0.3-0.3,11.1-10.9,12.6-12.4c0,0,0.1-0.1,0.1-0.1c0,0,0,0,0,0l0,0c0.2-0.3,0.4-0.7,0.4-1.1V5.9z M19.8,6.9H68v48.2H19.8V6.9z
	 M17.1,9v46.7l-9.9,9.9V18.7C8.1,17.8,13.6,12.4,17.1,9z M56,67.5H9l9.7-9.7c0,0,0,0,0,0h47C62.3,61.3,56.9,66.6,56,67.5z"/>
<path style="fill:#1823F1;" d="M44.6,18.9c6.7,0,12.1,5.4,12.1,12.1v1.2c0,6.7-5.4,12.1-12.1,12.1h-0.7H32.5V18.9h11.4H44.6
	 M44.6,16.3L44.6,16.3h-0.7H31.4c-0.8,0-1.5,0.7-1.5,1.5v27.7c0,0.8,0.7,1.5,1.5,1.5h12.6h0.7h0c8.1,0,14.7-6.6,14.7-14.7V31
	C59.3,22.9,52.7,16.3,44.6,16.3L44.6,16.3z"/>
<path style="fill:#1823F1;" d="M44.5,25.9c2.3,0,4.2,2.4,4.2,5.4V32c0,3-1.9,5.4-4.2,5.4h-0.3h-3.9V25.9h3.9H44.5 M44.5,23.3
	L44.5,23.3h-0.3h-5.9c-0.4,0-0.7,0.4-0.7,0.8v15.1c0,0.5,0.3,0.8,0.7,0.8h5.9h0.3h0c3.8,0,6.9-3.6,6.9-8v-0.7
	C51.4,26.9,48.3,23.3,44.5,23.3L44.5,23.3z"/>
<path style="fill:none;stroke:#1823F1;stroke-width:2.2943;stroke-miterlimit:10;" d="M29.8,32.3"/>
</svg>
