<?xml version="1.0" encoding="utf-8"?>
<!-- Generator: Adobe Illustrator 25.4.1, SVG Export Plug-In . SVG Version: 6.00 Build 0)  -->
<svg version="1.1" id="Layer_1" xmlns="http://www.w3.org/2000/svg" xmlns:xlink="http://www.w3.org/1999/xlink" x="0px" y="0px"
	 viewBox="0 0 1080 1080" style="enable-background:new 0 0 1080 1080;" xml:space="preserve">
<style type="text/css">
	.st0{fill:#5588E6;}
	.st1{fill:#2AF6FF;}
</style>
<path class="st0" d="M1028.1,631.4c-3,13.9-5,28-9,41.6c-33.3,113-151.8,177.7-264.8,144.4c-73.6-21.7-130-81.2-147.5-156
	c-0.5-2.1-1.2-4.2-2.2-7.6c-23.3,35.6-71.1,45.5-106.7,22.2c-8.8-5.8-16.3-13.3-22.1-22.1c-1.5,5-2.8,9-3.9,13
	C441.8,780.9,325.2,849,211.3,819.1c-80.5-21.1-141.4-87.2-155.9-169.2c-1-5.5-2.3-11-3.4-16.6v-41.9c2.1-10.2,3.8-20.4,6.3-30.5
	c8-32.5,23.7-62.6,45.7-87.8c26-30,52.2-59.8,78.6-89.4c25.2-28.1,58.4-47.9,95.1-56.5c5.5-1.7,10.5-4.9,14.3-9.2
	c9.3-10.4,17.3-21.9,26.5-32.5c32.9-38.2,90.4-42.5,128.6-9.7c21.4,18.4,33.1,45.7,31.6,73.9c-1.3,13.3-3.8,26.4-7.3,39.2
	c-2.6,7.5-1.2,15.9,3.8,22.1c3.3,4.8,6.3,9.8,8.8,15c10.4-21.4,32.2-34.9,56-34.9c23.7-0.2,45.4,13.5,55.6,34.9
	c4.7-7.8,9.2-14.6,12.9-21.7c1.2-2.8,1.5-5.9,0.8-8.9c-2.1-11.5-4.8-23-6.8-34.5c-7.2-40.1,13.1-80.2,49.9-97.9
	c36.2-18,80-9.7,107.1,20.4c10.4,11.5,19.4,24.3,29.5,36.1c3,3.4,7,5.9,11.4,7.2c39.9,9.2,75.7,31.2,102,62.6
	c21.6,25.4,43.8,50.3,66.2,75c31.9,33.7,52.1,76.7,57.8,122.7c0.4,2.1,0.9,4.2,1.6,6.2L1028.1,631.4z M264.9,784
	c94.7,0.3,171.8-76.3,172.1-171c0.3-94.7-76.3-171.8-171-172.1C171.6,440.6,94.7,516.6,93.9,611c-0.8,94.7,75.3,172.2,170.1,173
	C264.3,784,264.6,784,264.9,784z M814.2,784c94.8,0.2,171.7-76.5,171.9-171.2c0.2-94.8-76.5-171.7-171.2-171.9
	c-94.8-0.2-171.7,76.5-171.9,171.2c0,0,0,0,0,0.1C642.9,706.8,719.5,783.7,814.2,784L814.2,784z M539.5,658.1
	c25.3,0.3,46-20,46.2-45.2c0.3-25.3-20-46-45.2-46.2c-25.3-0.3-46,20-46.2,45.2c0,0.2,0,0.4,0,0.5
	C494.3,637.5,514.4,657.8,539.5,658.1z"/>
<path class="st1" d="M264.9,784c-94.7-0.3-171.3-77.4-171-172.1c0.3-94.7,77.4-171.3,172.1-171c94.4,0.3,170.8,76.8,171,171.2
	c0.3,94.7-76.3,171.7-171,171.9C265.7,784,265.3,784,264.9,784z"/>
<path class="st1" d="M814.2,784c-94.8-0.2-171.4-77.2-171.2-171.9c0.2-94.8,77.2-171.4,171.9-171.2S986.3,518,986.1,612.7
	c0,0.6,0,1.3,0,1.9C984.9,708.7,908.2,784.2,814.2,784z"/>
</svg>
