<?xml version="1.0" encoding="utf-8"?>
<!-- Generator: Adobe Illustrator 25.4.1, SVG Export Plug-In . SVG Version: 6.00 Build 0)  -->
<svg version="1.1" id="Layer_1" xmlns="http://www.w3.org/2000/svg" xmlns:xlink="http://www.w3.org/1999/xlink" x="0px" y="0px"
	 viewBox="0 0 74.9 74.9" style="enable-background:new 0 0 74.9 74.9;" xml:space="preserve">
<g>
	<path style="fill:#213458;" d="M68.3,38h-62c-2.2,0-4.1-1.8-4.1-4.1V13.2C2.2,11,4,9.1,6.3,9.1h62c2.3,0,4.1,1.8,4.1,4.1v20.7
		C72.4,36.1,70.5,38,68.3,38z"/>
	<path style="fill:#FFFFFF;" d="M10.9,18.5h5.4v1.6h-3.4v2h3.2v1.6h-3.2v3.6h-2V18.5z"/>
	<path style="fill:#FFFFFF;" d="M25.6,22.9c0,2.9-1.8,4.7-4.4,4.7c-2.6,0-4.2-2-4.2-4.5c0-2.7,1.7-4.7,4.3-4.7
		C24.1,18.4,25.6,20.4,25.6,22.9z M19.2,23c0,1.7,0.8,3,2.2,3c1.4,0,2.1-1.3,2.1-3c0-1.6-0.8-3-2.1-3C20,20,19.2,21.3,19.2,23z"/>
	<path style="fill:#FFFFFF;" d="M26.6,18.7c0.6-0.1,1.6-0.2,2.7-0.2c1.3,0,2.2,0.2,2.9,0.7c0.5,0.4,0.8,1,0.8,1.9
		c0,1.1-0.8,1.9-1.6,2.2v0c0.6,0.2,1,0.8,1.2,1.7c0.3,1,0.6,2.2,0.7,2.5h-2.1c-0.1-0.2-0.4-1-0.6-2.1c-0.2-1.1-0.6-1.4-1.4-1.4h-0.6
		v3.5h-2L26.6,18.7L26.6,18.7z M28.6,22.5h0.8c1,0,1.6-0.5,1.6-1.3c0-0.8-0.6-1.2-1.5-1.2c-0.5,0-0.8,0-0.9,0.1L28.6,22.5L28.6,22.5
		z"/>
	<path style="fill:#FFFFFF;" d="M36.5,25.4c0.5,0.3,1.4,0.6,2.2,0.6c0.9,0,1.4-0.4,1.4-1c0-0.6-0.4-0.9-1.5-1.3
		c-1.5-0.5-2.4-1.3-2.4-2.6c0-1.5,1.3-2.7,3.4-2.7c1,0,1.7,0.2,2.3,0.4l-0.4,1.6c-0.4-0.2-1-0.4-1.9-0.4s-1.3,0.4-1.3,0.9
		c0,0.6,0.5,0.8,1.6,1.2c1.6,0.6,2.3,1.4,2.3,2.7c0,1.5-1.1,2.8-3.6,2.8c-1,0-2-0.3-2.5-0.5L36.5,25.4z"/>
	<path style="fill:#FFFFFF;" d="M45.3,25.2l-0.6,2.3h-2.1l2.7-8.9H48l2.8,8.9h-2.2l-0.7-2.3H45.3z M47.6,23.6L47,21.8
		c-0.2-0.5-0.3-1.2-0.4-1.7h0c-0.1,0.5-0.3,1.2-0.4,1.7l-0.5,1.9H47.6z"/>
	<path style="fill:#FFFFFF;" d="M51.6,18.5h2v7.2h3.5v1.7h-5.5V18.5z"/>
	<path style="fill:#FFFFFF;" d="M63.3,23.7H60v2.1h3.7v1.6H58v-8.9h5.5v1.6H60V22h3.3V23.7z"/>
	<rect x="35.1" y="36.4" style="fill:#213458;" width="4.4" height="27.7"/>
	<rect x="28.5" y="61.7" style="fill:#213458;" width="17.5" height="4.4"/>
</g>
</svg>
