<svg version="1.1" id="Layer_1" xmlns="http://www.w3.org/2000/svg" xmlns:xlink="http://www.w3.org/1999/xlink" x="0px" y="0px"
	 viewBox="0 0 1080 1080" style="enable-background:new 0 0 1080 1080;" xml:space="preserve">
<g id="Group_121" transform="translate(0 0)">
	<path id="Path_18320" style="fill:#213458;" d="M879.55,764.67c-14.08-0.01-25.49-11.44-25.47-25.52
		c0.01-14.06,11.41-25.46,25.47-25.47h44.79V317.45h-44.52c-14.08-0.01-25.49-11.44-25.47-25.52c0.01-14.06,11.41-25.46,25.47-25.47
		h44.52v-120.9c0-6.97-5.65-12.61-12.61-12.61H168.29c-6.97,0-12.61,5.65-12.61,12.61l0,0v740.01c0,6.97,5.65,12.61,12.61,12.61l0,0
		h743.22c6.97,0,12.61-5.65,12.61-12.61v-120.9H879.55z M828.56,601.59H581.87c-14.08,0-25.5-11.41-25.5-25.49v0V455.09
		c0-14.08,11.41-25.5,25.5-25.5l0,0h246.58c14.08,0,25.5,11.41,25.5,25.49v0v120.95c0,14.04-11.35,25.44-25.39,25.5V601.59z
		 M952.17,27.05H127.63c-43.54,0.06-78.82,35.34-78.88,78.88v824.48c0.05,42.87,34.28,77.87,77.14,78.88v27.18
		c0,14.08,11.41,25.5,25.49,25.5h0h84.04c14.08,0,25.5-11.41,25.5-25.49v0v-26.91h549.26v26.91c0,14.08,11.41,25.5,25.49,25.5h0
		h84.04c14.08,0,25.5-11.41,25.5-25.49v0v-26.91h7.12c43.54-0.06,78.82-35.34,78.88-78.88V105.88
		c-0.06-43.6-35.44-78.91-79.04-78.88V27.05z M975.11,885.62c-0.03,35.11-28.49,63.57-63.6,63.6H168.29
		c-35.11-0.03-63.57-28.49-63.6-63.6V145.56c0.03-35.11,28.49-63.57,63.6-63.6h743.22c35.11,0.03,63.57,28.49,63.6,63.6
		L975.11,885.62z"/>
</g>
<g id="Group_1" transform="translate(3.361 6.406)">
	<path id="Path_4" style="fill:#FFFFFF;" d="M471.14,579.31v-140.3l-121.55-70.18l-121.55,70.18v140.3l121.55,70.18L471.14,579.31z"
		/>
	<path id="Path_5" style="fill:#5588E6;" d="M466.31,576.76V442.38l-116.55-67.3l-116.55,67.3v134.6l116.55,67.3L466.31,576.76z"/>
	<path id="Path_6" style="fill:#FFFFFF;" d="M339.1,564.8h-33.27V454.17h33.54c48.54,0,68.17,24.79,68.17,55.34
		S387.65,564.8,339.1,564.8z M340.73,478.25h-3.04v62.19h3.04c17.14,2.03,32.69-10.22,34.72-27.36
		c2.03-17.14-10.22-32.69-27.36-34.72c-2.45-0.29-4.92-0.29-7.36,0V478.25z"/>
</g>
</svg>
