<svg xmlns="http://www.w3.org/2000/svg" viewBox="0 0 100.85753 56.9262">
  <defs>
    <style>
      .cls-1 {
        fill: #f8f7fc;
      }
    </style>
  </defs>
  <title>Recurso 14</title>
  <g id="Capa_2" data-name="Capa 2">
    <g id="Capa_1-2" data-name="Capa 1">
      <g id="XXVoNR.tif">
        <path class="cls-1" d="M52.61732,53.19276a1.77081,1.77081,0,0,0-.19841.30621c-.97016,2.70429-4.02939,3.67976-6.25262,3.3729a7.857,7.857,0,0,1-3.86874-1.733A187.20574,187.20574,0,0,1,26.94878,41.779c-2.04681-2.0292-3.93243-4.221-5.89121-6.339-.10248-.1108-.204-.22251-.37132-.40515a3.63875,3.63875,0,0,0-.23045.48277c-.31133,1.05571-.59728,2.11911-.92193,3.17061a2.11658,2.11658,0,0,1-2.87057,1.554c-1.93126-.52991-3.85322-1.09365-5.78023-1.63914-2.92243-.82726-5.842-1.665-8.77006-2.47186C.188,35.60077-.34967,34.588.20884,32.69155c1.1315-3.84213,2.211-7.69959,3.30488-11.55275Q5.28081,14.914,7.035,8.68547c.62835-2.22368,1.26112-4.44613,1.88141-6.67205C9.41542.2227,10.33347-.32374,12.113.177c4.93656,1.389,9.87318,2.77822,14.79784,4.20844a3.22091,3.22091,0,0,1,1.27018.87.90368.90368,0,0,0,.82.35122c4.21934-.29522,8.44148-.55018,12.66112-.84129a3.602,3.602,0,0,0,1.37078-.34959,18.73618,18.73618,0,0,1,13.739-1.34538A63.76082,63.76082,0,0,1,68.84009,7.67585a1.28927,1.28927,0,0,0,1.184.09092,6.737,6.737,0,0,1,.95141-.27239,1.9587,1.9587,0,0,0,1.6149-1.22268A2.09987,2.09987,0,0,1,73.875,5.25745c5.09245-1.48489,10.2001-2.918,15.30865-4.34713A2.14842,2.14842,0,0,1,91.846,2.47176c.98811,3.49368,1.96251,6.99124,2.95057,10.48493q2.965,10.48371,5.93918,20.9648a2.21859,2.21859,0,0,1-1.63283,2.96595q-7.37,2.08416-14.74267,4.15892c-1.67063.47065-2.61254-.016-3.08525-1.70164-.18482-.659-.45964-.753-1.068-.59389-.63171.16525-1.45253-.00342-1.9059.34473-.44942.3451-.50545,1.172-.801,1.75346a6.42578,6.42578,0,0,1-4.79115,3.37c-.42783.08661-.59916.24286-.63524.66479a6.54927,6.54927,0,0,1-7.53614,5.94838c-.31755-.04393-.57385-.07558-.68906.36864-1.0548,4.06716-6.08869,5.466-9.52987,3.25476C53.74759,54.08864,53.22477,53.64665,52.61732,53.19276ZM36.75043,9.30775a.99941.99941,0,0,0-.28027-.07173c-2.71864.253-5.43637.516-8.15545.7643-.54691.04993-.76324.35268-.904.85528C25.737,16.832,24.03456,22.80037,22.37722,28.78126a1.83475,1.83475,0,0,0,.13882,1.355A46.67152,46.67152,0,0,0,25.7313,34.4824,97.78485,97.78485,0,0,0,36.54374,44.868c3.02218,2.5662,6.11085,5.05519,9.20335,7.53691,1.16314.93342,1.94175.76341,2.76952-.43007a1.598,1.598,0,0,0-.327-2.34224c-1.21595-1.18314-2.45895-2.33862-3.6679-3.52876a2.04784,2.04784,0,0,1-.03611-3.00843,2.11082,2.11082,0,0,1,2.974-.1119c2.18958,1.91428,4.37174,3.83709,6.56788,5.74381.93113.80842,1.85376,1.63419,2.84588,2.36269,1.03157.75747,1.75052.6079,2.56472-.38734a4.16268,4.16268,0,0,0,.4824-.70745,1.48975,1.48975,0,0,0-.28642-1.93037c-.67171-.66544-1.35243-1.327-2.07749-1.93239-1.97869-1.65221-3.99614-3.258-5.97129-4.91439a2.11237,2.11237,0,0,1-.23971-3.15356,2.1851,2.1851,0,0,1,3.09467.01036q4.76488,3.98541,9.52245,7.97955c1.47972,1.23756,2.33107,1.14029,3.53159-.38214.09541-.121.1882-.24489.27214-.374a1.63044,1.63044,0,0,0-.34352-2.44562q-4.55331-3.87919-9.12132-7.74113a2.13121,2.13121,0,1,1,2.71444-3.27064c1.02175.8389,2.02335,1.70228,3.03716,2.5509q3.24312,2.71468,6.49019,5.42465a1.716,1.716,0,0,0,1.77534.4164,2.46768,2.46768,0,0,0,.77554-4.41836q-9.97366-8.1646-19.98746-16.28a1.50018,1.50018,0,0,0-1.07237-.21814c-1.01833.16913-2.01455.47077-3.03254.643a1.68655,1.68655,0,0,0-1.13938.6598,19.56787,19.56787,0,0,1-6.06736,5.42039c-4.32657,2.26536-8.06837-.08218-8.82778-4.02561a13.82662,13.82662,0,0,1,1.65051-9.37373C35.22927,11.50552,36.00616,10.46009,36.75043,9.30775ZM50.92928,6.5219c-.36366.05232-1.0377.13972-1.70845.24756a14.6598,14.6598,0,0,0-6.1304,2.48177,15.29111,15.29111,0,0,0-6.09218,8.77,7.95275,7.95275,0,0,0-.08077,3.12164,1.7655,1.7655,0,0,0,2.31423,1.47116,6.00207,6.00207,0,0,0,2.01366-1.06354A19.34888,19.34888,0,0,0,45.29788,16.963a2.32949,2.32949,0,0,1,2.52058-1.16137,2.32,2.32,0,0,0,.978-.03067c1.12574-.29915,2.22985-.68447,3.36239-.95121a3.32165,3.32165,0,0,1,1.66744-.03872,4.7243,4.7243,0,0,1,1.38855.97328Q65.467,24.1,75.70507,32.46288a5.16654,5.16654,0,0,1,1.40485,1.46358c.49449.96666,1.21715.90272,2.04893.77268.51964-.08125.70483-.29717.54678-.85019Q76.5577,22.834,73.44908,11.80779c-.13155-.46715-.31666-.55578-.74372-.41831-.87969.28317-1.77139.52886-2.6527.8072a2.71621,2.71621,0,0,1-2.04116-.1713C65.30706,10.8,62.61509,9.53593,59.8544,8.449A27.44205,27.44205,0,0,0,50.92928,6.5219ZM76.99386,8.7631c.81241,2.84838,1.59495,5.57515,2.3677,8.30468q2.66968,9.42988,5.323,18.86435c.11657.41562.27457.52867.69287.40934q5.10964-1.45763,10.22865-2.88212c.42943-.11941.49741-.34154.38664-.72648-.54764-1.9031-1.08543-3.809-1.62621-5.71412Q91.42844,16.66811,88.48822,6.31807c-.0695-.24448-.17431-.47893-.27008-.73814Zm-61.36768,26.776c.56856.10088.51521-.39408.59815-.68015.63659-2.19563,1.24245-4.40015,1.86422-6.6001Q20.8884,18.35251,23.705,8.45093c.145-.50716-.0644-.60132-.45908-.7118-3.283-.919-6.56177-1.85272-9.84262-2.77923-.84964-.23994-.843-.23317-1.07067.57194Q8.606,18.70774,4.86552,31.87967c-.1276.44832-.04624.61114.41017.73484,2.05936.55814,4.10793,1.15612,6.16069,1.73865Q13.531,34.94758,15.62619,35.53912Z"/>
      </g>
    </g>
  </g>
</svg>
