<svg xmlns="http://www.w3.org/2000/svg" viewBox="0 0 100.66105 85.80415">
  <defs>
    <style>
      .cls-1 {
        fill: #f8f7fc;
      }
    </style>
  </defs>
  <title>Recurso 22</title>
  <g id="Capa_2" data-name="Capa 2">
    <g id="Capa_1-2" data-name="Capa 1">
      <g>
        <path class="cls-1" d="M59.919,77.57327A41.02043,41.02043,0,1,1,24.05958,3.81375a39.64491,39.64491,0,0,1,34.73855.39188C70.20835,9.68412,77.397,18.83745,80.88824,31.191c.21274-.48111.349-.77636.47495-1.07594,3.57012-8.48981,7.125-16.98612,10.72942-25.46131a8.31932,8.31932,0,0,1,1.61267-2.47051,3.90425,3.90425,0,0,1,4.43543-1.12863,3.99526,3.99526,0,0,1,2.51147,3.83786,8.27837,8.27837,0,0,1-.36411,2.76425Q93.11246,31.41191,85.8814,55.15034a16.35363,16.35363,0,0,1-2.18587,5.24222,8.52,8.52,0,0,1-4.59565,3.35675c-3.62309.99676-6.95074-1.25848-7.7609-5.22344a10.29226,10.29226,0,0,1,.5409-5.86313A19.68875,19.68875,0,0,1,72.8097,50.465c1.8212-3.42179,2.05436-7.1215,1.87567-10.87014A33.67989,33.67989,0,1,0,36.62566,74.50141a32.85217,32.85217,0,0,0,25.53974-7.2027,1.95154,1.95154,0,0,0,.6459-1.17917c.49112-4.04832,3.14271-6.22075,6.59216-7.82562.07859,1.18817.066,2.28835.23858,3.35868A6.40154,6.40154,0,0,0,74.636,67.16872,6.95419,6.95419,0,0,0,80.594,65.257c.21043-.18112.40919-.37579.69748-.64182a8.08168,8.08168,0,0,1,.05223,5.47927,13.26759,13.26759,0,0,1-5.00221,6.7427,49.4977,49.4977,0,0,1-19.54231,8.73364,15.439,15.439,0,0,1-3.05135.2331c-.39116-.00145-.78111-.328-1.17162-.50642a4.07583,4.07583,0,0,1,.64225-1.02787c1.07658-.92639,2.26692-1.72727,3.29569-2.70085,1.26935-1.20127,2.42014-2.52787,3.62215-3.8003Zm2.72159-9.62958a34.18737,34.18737,0,0,1-23.87412,7.49113A33.5411,33.5411,0,0,1,16.189,64.91888a34.43235,34.43235,0,1,1,59.19716-20.7313c.18641-.38748.3-.6.39328-.821.92875-2.19981,1.77572-4.43872,2.80851-6.5884a5.92158,5.92158,0,0,0,.36135-4.17541A38.88479,38.88479,0,0,0,34.28953,2.87409C17.43177,5.69965,3.88931,20.13084,2.43014,37.14421c-1.26522,14.752,4.15341,26.69631,16.034,35.51305A38.50814,38.50814,0,0,0,61.30466,74.224c.25277-.15713.57044-.368.65034-.61971A17.57144,17.57144,0,0,0,62.64055,67.94369Z"/>
        <g>
          <path class="cls-1" d="M30.46142,46.37934V34.82159h2.686V51.04568a20.15311,20.15311,0,0,1-2.1359-.02624c-.24435-.02646-.50827-.31765-.67472-.5511q-3.68836-5.173-7.35158-10.364c-.1731-.24422-.36282-.47664-.70444-.92321V51.00537H19.58323V34.76155a16.50161,16.50161,0,0,1,2.04309.02739,1.34573,1.34573,0,0,1,.74552.579q3.74457,5.2375,7.45821,10.49714c.14279.20122.30083.39163.45176.58707Z"/>
          <path class="cls-1" d="M48.4014,41.78736v2.16536H41.09406V51.001H38.376V34.80834H49.33675v2.06928H41.10908v4.90974Z"/>
          <path class="cls-1" d="M60.46646,36.87948V50.98364H57.70637V36.9396H52.554V34.8088h13.0531v2.07068Z"/>
        </g>
      </g>
    </g>
  </g>
</svg>
