<svg xmlns="http://www.w3.org/2000/svg" viewBox="0 0 81.03006 85.06784">
  <defs>
    <style>
      .cls-1 {
        fill: #f8f7fc;
      }
    </style>
  </defs>
  <title>Recurso 15</title>
  <g id="Capa_2" data-name="Capa 2">
    <g id="Capa_1-2" data-name="Capa 1">
      <g>
        <path class="cls-1" d="M68.6653,80.57266V60.49376c-.39-.01794-.825-.05521-1.26-.05541-7.62649-.00361-15.25305-.02139-22.87942.00886a5.26233,5.26233,0,0,1-5.00743-2.82666,1.68976,1.68976,0,0,0-1.27652-.593c-7.00457-.0362-14.00939-.02517-21.01416-.02533-.33155,0-.66324.00143-.99462-.00725a1.41378,1.41378,0,0,1-.08534-2.82619c.37146-.02592.74551-.0196,1.11838-.01963q10.13411-.00085,20.26822.00056c.449,0,.898,0,1.45967,0V49.62041c-1.74968,0-3.47489.00136-5.20009-.00093-.45536-.0006-1.01407.15107-1.34246-.05649-.52738-.33335-1.1775-.8564-1.27739-1.3922-.14991-.804.466-1.39817,1.35614-1.41532,1.69877-.03272,3.39855-.01308,5.09791-.01492.44472-.00049.88944-.00008,1.40418-.00008V40.25919c-.472,0-.91193,0-1.35185,0q-7.64721-.00055-15.29442-.002c-.37279-.00013-.85711.13218-1.09528-.05046-.504-.38646-1.21282-.94034-1.21307-1.42587-.00024-.47724.72085-1.024,1.22828-1.40228.24267-.1809.72329-.048,1.09613-.04807q7.585-.00229,15.17008-.00178c.45072,0,.90144,0,1.42683,0,.0718-.64335.11647-1.20808.20045-1.7669a4.70936,4.70936,0,0,1,4.12162-4.0365,10.87229,10.87229,0,0,1,1.36328-.07572q15.23225-.00568,30.4645-.00076c4.13124.00192,5.87959,1.76752,5.87972,5.91372q.00028,8.82849-.00261,17.657c-.00412,3.45115-1.94834,5.4012-5.377,5.41346-1.28029.00458-2.56062.00074-4.02246.00074,0,.52246,0,.96134,0,1.40021q-.00089,8.57979-.00326,17.15959c-.004,3.74132-2.31158,6.06437-6.0309,6.06546q-19.52215.00572-39.0443.00886a5.86063,5.86063,0,0,1-5.67535-3.48919,1.59555,1.59555,0,0,0-1.17712-.70532c-2.73419-.062-5.47045-.0298-8.206-.03344-1.49089-.002-2.13433-.45248-2.11794-1.46645.01611-.99691.65819-1.43125,2.179-1.43617,2.48687-.008,4.97378-.00095,7.46068-.00029.44513.00012.89025,0,1.38758,0V71.66763c-2.28436,0-4.47519-.00011-6.666.00011-.373,0-.74609.00465-1.1191.00172-1.35961-.0107-2.02669-.49513-2.01049-1.45677.01607-.95359.65169-1.39316,2.06616-1.39864,2.15528-.00836,4.31061-.00336,6.46592-.004.404-.00011.808,0,1.35455,0,0-2.11488-.00082-4.09554.00072-6.07619.00029-.37282-.01625-.74824.02061-1.11793a1.34749,1.34749,0,0,1,1.4383-1.39334A1.331,1.331,0,0,1,23.34486,61.652c.02949.911.01482,1.82346.015,2.73529q.00151,7.212.00686,14.424c.001.479.08788.95782.16162,1.70882L40.17116,67.49529c-1.33235-1.05723-2.58382-2.04494-3.82928-3.04018-1.07489-.85894-1.31178-1.66657-.644-2.38644.80646-.86938,1.59814-.54967,2.4021.08655,2.63,2.08126,5.27912,4.13825,7.96688,6.24055,2.22443-1.73973,4.41093-3.44132,6.58686-5.15633.73387-.57842,1.50534-.83248,2.206-.062a1.36492,1.36492,0,0,1-.21656,2.16455c-.85285.70847-1.73178,1.38555-2.68742,2.14641ZM26.276,82.05956h39.5669L49.60626,69.3261c-.61434.47285-1.1401.87113-1.65906,1.2781-1.87252,1.46844-1.88177,1.46881-3.80608-.029-.51747-.40277-1.03911-.80016-1.61784-1.24541ZM60.07172,46.33514l15.22354-11.932H44.8399ZM75.277,57.45849,62.83288,47.716c-1.82028,2.42729-3.741,2.29476-5.56294.0237L44.87619,57.45849ZM42.10113,35.949V55.94321L54.86422,45.93481ZM78.00486,55.91265V35.9701L65.27191,45.94038Z"/>
        <path class="cls-1" d="M19.02852,5.91307c.03785-.41229.07474-.69188.08756-.97257A4.82855,4.82855,0,0,1,24.21563.009q12.494-.01534,24.98806-.00353c2.27917,0,4.55848-.01493,6.83749.0043A4.73288,4.73288,0,0,1,61.006,4.8045q.09984,9.63365.00427,19.26894c-.03015,3.07048-2.095,4.8983-5.37072,4.90475q-14.17228.02788-28.34465.00923c-1.036.00007-2.072.00281-3.10793-.0067a5.00939,5.00939,0,0,1-4.58426-2.68135,1.668,1.668,0,0,0-1.21852-.68076c-3.72882-.05269-7.45875-.021-11.18818-.04382-.47949-.00293-1.13554-.01683-1.39366-.30694-.35352-.39732-.70766-1.24069-.51365-1.57329a2.2641,2.2641,0,0,1,1.61979-.98877c3.56161-.08863,7.1265-.04568,10.6903-.04632.44917-.00008.89833,0,1.4314,0V18.15879c-2.13714,0-4.24082.05863-6.3368-.04238a1.94775,1.94775,0,0,1-1.41389-.91762,1.78931,1.78931,0,0,1,.38587-1.52125,2.02717,2.02717,0,0,1,1.36147-.39885c1.57334-.04657,3.14889-.01862,4.7236-.01915.40476-.00014.80952,0,1.289,0V8.76442c-.43056,0-.86546,0-1.30036,0q-7.64555.00023-15.2911.00035c-.29007,0-.58016-.00371-.87022-.002-.93546.00558-1.55416-.4527-1.577-1.38028-.02476-1.00541.623-1.468,1.60994-1.46784q5.40786.00064,10.81572-.00155C14.61289,5.91283,16.79944,5.91307,19.02852,5.91307Zm21.04865,8.9707L55.251,2.98954h-30.355ZM24.84614,26.0246H55.29873L42.84081,16.26235c-1.82881,2.4396-3.74878,2.3064-5.56.02166ZM58.04333,24.484V4.49057L45.27894,14.49015ZM22.14093,4.51857V24.45963L34.87255,14.4898Z"/>
      </g>
    </g>
  </g>
</svg>
