<svg xmlns="http://www.w3.org/2000/svg" viewBox="0 0 73.91645 56.91577">
  <defs>
    <style>
      .cls-1 {
        fill: #f8f7fc;
      }
    </style>
  </defs>
  <title>Recurso 16</title>
  <g id="Capa_2" data-name="Capa 2">
    <g id="Capa_1-2" data-name="Capa 1">
      <g id="ZKnQnd.tif">
        <g>
          <path class="cls-1" d="M42.53911,16.531c-4.95648.00083-9.913-.00455-14.86938.01289a3.972,3.972,0,0,0-.994.2688,4.38871,4.38871,0,0,0,.53673.89229c2.02241,2.05476,4.07583,4.079,6.09785,6.13415a2.74833,2.74833,0,0,1,.11341,3.8448,2.66305,2.66305,0,0,1-3.83244-.10767q-5.70417-5.65605-11.37233-11.34835a2.62536,2.62536,0,0,1-.01971-3.97361Q23.81167,6.57507,29.488.95905A2.64932,2.64932,0,0,1,33.39038.76848a2.72027,2.72027,0,0,1-.20179,3.98463c-1.83442,1.85506-3.69811,3.68118-5.53,5.53869a4.13163,4.13163,0,0,0-.519.88429,4.06777,4.06777,0,0,0,1.01818.27342q13.8.02118,27.60007.00271a18.86794,18.86794,0,0,1,9.24055,1.98265,15.962,15.962,0,0,1,7.5431,8.2201,16.2285,16.2285,0,0,1-2.77856,17.42065,15.4785,15.4785,0,0,1-6.58267,4.62578c-1.60793.6013-3.06943.14355-3.6297-1.21367-.60556-1.46688.02-2.81467,1.6978-3.47849a11.85608,11.85608,0,0,0,6.49968-6.10269A11.6719,11.6719,0,0,0,62.941,18.0859a12.87446,12.87446,0,0,0-6.24538-1.55484Q49.61737,16.52685,42.53911,16.531Z"/>
          <path class="cls-1" d="M31.25819,40.37977c4.99117.00152,9.98235.00744,14.97344-.01213A3.46049,3.46049,0,0,0,47.202,40.063a3.88309,3.88309,0,0,0-.48383-.81836c-2.02432-2.05363-4.07539-4.08089-6.10083-6.13343a2.67109,2.67109,0,0,1-.15334-3.82431,2.57906,2.57906,0,0,1,3.8151.025q5.717,5.6457,11.37255,11.35348a2.5895,2.5895,0,0,1,.06042,3.97136Q50.072,50.36306,44.35861,56.01708a2.7528,2.7528,0,0,1-3.3621.54763,2.52587,2.52587,0,0,1-1.13875-2.91041,3.76747,3.76747,0,0,1,.93935-1.519c1.791-1.85015,3.6372-3.64671,5.44279-5.483a4.2,4.2,0,0,0,.52686-.90184,3.83374,3.83374,0,0,0-.99531-.28045c-9.26929-.018-18.53879-.05157-27.80787-.005A17.69808,17.69808,0,0,1,6.291,41.7756a16.64886,16.64886,0,0,1,4.71035-28.662,2.59626,2.59626,0,0,1,3.34626,1.30774,2.49405,2.49405,0,0,1-1.58332,3.44971,11.83056,11.83056,0,0,0-5.54787,4.28655A11.50462,11.50462,0,0,0,12.444,39.47779a14.2481,14.2481,0,0,0,4.55464.86074C21.74964,40.447,26.5047,40.37825,31.25819,40.37977Z"/>
        </g>
      </g>
    </g>
  </g>
</svg>
