<svg xmlns="http://www.w3.org/2000/svg" viewBox="0 0 111.21701 56.42014">
  <defs>
    <style>
      .cls-1 {
        fill: #f8f7fc;
      }
    </style>
  </defs>
  <title>Recurso 17</title>
  <g id="Capa_2" data-name="Capa 2">
    <g id="Capa_1-2" data-name="Capa 1">
      <g>
        <path class="cls-1" d="M60.29236,26.75493a4.79093,4.79093,0,0,1-.8932-4.46194,5.20564,5.20564,0,0,1,9.30612-1.65771c2.61478,3.61081,5.2044,7.23982,7.87993,10.96653.35334-.13077.64108-.22421.91854-.34192,3.60856-1.5309,7.19643-3.11315,10.83321-4.57363a17.80829,17.80829,0,0,1,4.19142-1.11661c.848-.11557,1.14035-.41125,1.20539-1.15241.068-.77442.81481-1.519-.41631-2.22912A11.62021,11.62021,0,0,1,87.64128,9.8239a11.88411,11.88411,0,0,1,22.7662-2.16241,11.70461,11.70461,0,0,1-3.98107,13.78814c-1.23263.85469-1.6242,1.62292-1.08405,2.943.05705.13943.00938.352.09914.442.25487.25564.53675.63263.84151.66733a5.10144,5.10144,0,0,1,4.92615,5.45352q.01438,9.98217.00034,19.96436a5.08281,5.08281,0,0,1-5.26381,5.46575c-4.46129.06-8.92422.03029-13.38613-.00321a4.80868,4.80868,0,0,1-4.59679-2.91255,6.10851,6.10851,0,0,1-.50448-2.4486c-.04905-4.1464-.02254-8.29371-.02254-12.61132-.477.18886-.82415.31834-1.16507.4625-3.07922,1.302-6.15158,2.62052-9.2376,3.90622A5.142,5.142,0,0,1,70.42644,40.911q-2.53975-3.50117-5.049-7.02439a3.75588,3.75588,0,0,1-.30415-.6648m42.827-2.14179c-.00919-1.648-.73176-2.35968-2.34287-2.23162a1.68475,1.68475,0,0,0-1.13068.70574c-1.18493,1.93241-2.28735,3.91526-3.42819,5.87493-.97213,1.66989-2.372,1.67962-3.34512.01631-1.12586-1.9244-2.26358-3.84328-3.32636-5.80241a1.33752,1.33752,0,0,0-1.56867-.81986,9.935,9.935,0,0,0-2.00523.45885c-4.46934,1.858-8.92108,3.75844-13.37907,5.64385-1.62.68517-2.0814.57216-3.11058-.85377q-4.01576-5.56382-8.00468-11.147c-.57141-.79938-1.2106-1.418-2.29356-1.12513-1.43029.38684-1.821,1.85051-.84543,3.21708q3.41757,4.78731,6.85729,9.55881c1.00888,1.40509,2.01446,2.81258,3.03118,4.212.89545,1.23248,1.56463,1.4283,2.96278.83809,3.92815-1.65822,7.84906-3.33358,11.77666-4.99312,2.04923-.86587,2.98027-.24861,2.98312,1.96879q.00894,6.98084.00955,13.96168c.00307,1.93256.55482,2.49158,2.45647,2.494q6.17315.00769,12.34632-.00052c1.73834-.00328,2.35666-.6155,2.36381-2.3611.01338-3.26921.00385-6.53852.00385-9.80778h-.00522C107.90565,37.6185,107.91849,34.34915,107.90027,31.08Zm.005-19.17407a8.58434,8.58434,0,1,0-8.54509,8.61448A8.60731,8.60731,0,0,0,107.90524,11.90592Zm-10.144,17.1306a21.45678,21.45678,0,0,1,1.56511,2.61862,42.7287,42.7287,0,0,0,2.79005-4.98568c.326-.80205-.11634-1.91646-.20943-2.878H97.42237C96.59369,25.61306,96.38424,27.34359,97.76126,29.03653Z"/>
        <path class="cls-1" d="M31.01486,24.28658c2.01893-5.55951,4.01282-11.1281,6.02456-16.69022.95538-2.64142,2.6944-3.44056,5.34824-2.4815,3.10509,1.12213,6.20689,2.25352,9.31694,3.36175,2.65266.94524,3.49033,2.66178,2.54069,5.30487q-2.98059,8.29571-5.97149,16.58774c-.86931,2.41243-2.54515,3.29739-4.95241,2.48285-.73316-.24808-1.01522-.09166-1.32648.53535q-2.43508,4.90532-4.92527,9.78326a5.16521,5.16521,0,0,1-7.74571,1.91072c-1.49622-1.07861-2.92457-2.25117-4.38806-3.37549-.31694-.24348-.65338-.46159-1.00272-.70674-.08372.18919-.13731.25387-.13745.31865-.00676,3.15367-.003,6.30737-.01319,9.461-.01112,3.44806-2.069,5.5084-5.53644,5.52058-4.19218.01472-8.38446.00519-12.5767.00469C2.05954,56.3037.01026,54.2812.00576,50.68538Q-.00643,40.93556.006,31.18571c.00418-3.636,1.83169-5.559,5.42919-5.79213a1.28962,1.28962,0,0,0,.93462-.42474,16.54232,16.54232,0,0,0,.83947-2.06625A12.05455,12.05455,0,0,1,.32335,9.09117a11.89245,11.89245,0,0,1,22.868-.87043c1.88931,5.54332-.22768,10.41342-6.4281,14.66771a19.05987,19.05987,0,0,0,.57527,1.93617.97519.97519,0,0,0,.68345.55389c2.48038-.09509,4.40152,1.038,6.22987,2.56626C26.27856,29.6389,28.41818,31.198,30.598,32.885l1.93842-3.8158A3.81642,3.81642,0,0,1,31.01486,24.28658Zm4.7153,5.88132c-.90313,1.76631-1.79272,3.49619-2.67318,5.23071-1.0398,2.0485-1.79314,2.21688-3.63792.78894q-4.19324-3.24572-8.38112-6.49831c-1.98871-1.54306-3.47816-1.2548-4.70323.89373q-1.39838,2.45254-2.83355,4.884c-.91017,1.53308-2.30591,1.53871-3.20565.01258-1.15111-1.95245-2.3362-3.88892-3.38439-5.89613a1.395,1.395,0,0,0-1.80038-.767,3.53574,3.53574,0,0,0-1.5924,1.07917c-.25035.28994-.21079.87566-.21165,1.32871q-.018,9.63-.00755,19.26c.0011,1.94513.59277,2.52461,2.55867,2.52587q5.99714.00383,11.99429.00007c2.06559-.00116,2.61741-.54071,2.6198-2.57615q.00729-6.17013-.0012-12.34026c-.00186-.87147.01117-1.70148.95178-2.15976.94933-.46252,1.60769.07586,2.286.60379q3.59383,2.79712,7.193,5.58745c1.34185,1.04214,2.52487.81461,3.29738-.68053,1.69088-3.27257,3.358-6.55741,5.10987-9.984ZM3.30623,11.85358A8.57719,8.57719,0,1,0,11.8586,3.36151,8.61364,8.61364,0,0,0,3.30623,11.85358ZM33.93715,26.00374,44.89609,29.933c2.18114-6.05949,4.31849-11.99734,6.49047-18.03137L40.458,7.96546C38.28325,13.98138,36.13611,19.92087,33.93715,26.00374ZM14.1663,27.60282a2.6142,2.6142,0,0,0,.01106-1.52151c-.1523-.77924-.42132-1.53567-.65069-2.33587-.25516,0-.44254-.004-.62971.00061-2.497.06188-2.5257.05206-3.36039,2.42074a2.08768,2.08768,0,0,0,.09576,1.4668c.59491,1.20145,1.31483,2.34112,1.99087,3.502a3.0557,3.0557,0,0,0,.32416.36013C12.73693,30.13576,13.52241,28.90431,14.1663,27.60282Z"/>
        <path class="cls-1" d="M99.28446,42.88742a1.93922,1.93922,0,0,0,1.99538-1.93115,1.957,1.957,0,0,0-3.913-.08537A1.94834,1.94834,0,0,0,99.28446,42.88742Z"/>
        <path class="cls-1" d="M99.31293,45.4a1.92235,1.92235,0,0,0-1.94444,1.97342,1.95347,1.95347,0,0,0,3.90667-.01091A1.92236,1.92236,0,0,0,99.31293,45.4Z"/>
        <path class="cls-1" d="M11.86855,38.93861a1.92746,1.92746,0,0,0-1.926,1.87484,1.95518,1.95518,0,1,0,3.9089.07158A1.95794,1.95794,0,0,0,11.86855,38.93861Z"/>
        <path class="cls-1" d="M11.932,49.21689a1.96727,1.96727,0,0,0,1.92136-2.00751,1.9166,1.9166,0,0,0-2.04992-1.86651,1.8955,1.8955,0,0,0-1.8494,1.93492A1.92113,1.92113,0,0,0,11.932,49.21689Z"/>
      </g>
    </g>
  </g>
</svg>
