<svg xmlns="http://www.w3.org/2000/svg" viewBox="0 0 64.97679 68.91936">
  <defs>
    <style>
      .cls-1 {
        fill: #f8f7fc;
        stroke: #f8f7fc;
        stroke-miterlimit: 10;
      }
    </style>
  </defs>
  <title>Recurso 18</title>
  <g id="Capa_2" data-name="Capa 2">
    <g id="Capa_1-2" data-name="Capa 1">
      <g id="f8BUjM.tif">
        <g>
          <path class="cls-1" d="M23.888,41.759A17.83409,17.83409,0,1,1,41.74189,23.95321,17.8151,17.8151,0,0,1,23.888,41.759Zm.00982-34.094A16.2645,16.2645,0,1,0,40.17168,23.87871,16.19619,16.19619,0,0,0,23.89783,7.66508Z"/>
          <g>
            <path class="cls-1" d="M42.00331,38.86628c1.20378,1.34262,2.40145,2.65461,3.56845,3.99333a2.05657,2.05657,0,0,0,1.42911.75684,4.62642,4.62642,0,0,1,2.91834,1.58941q6.17358,6.84035,12.33937,13.68772a9.05918,9.05918,0,0,1,1.903,2.63259,5.17545,5.17545,0,0,1-2.23181,6.19668,4.96369,4.96369,0,0,1-6.33952-1.05625Q48.96194,59.37747,42.38351,52.043a5.36291,5.36291,0,0,1-1.3155-3.25361,2.33424,2.33424,0,0,0-.51516-1.22764c-1.04267-1.23494-2.156-2.40989-3.22243-3.62525-.36793-.41932-.65868-.40722-1.132-.11a23.0663,23.0663,0,0,1-7.48872,2.99287,22.24884,22.24884,0,0,1-8.739.17963,23.16734,23.16734,0,0,1-15.1415-9.52011A22.40065,22.40065,0,0,1,.71222,27.10879,23.44888,23.44888,0,0,1,10.77238,4.56739a22.91181,22.91181,0,0,1,7.99647-3.46755A22.491,22.491,0,0,1,28.22279.91534a23.43727,23.43727,0,0,1,18.36433,17.2975,23.32121,23.32121,0,0,1,.17336,10.75931A22.78145,22.78145,0,0,1,42.43375,38.226C42.28752,38.41517,42.16574,38.62321,42.00331,38.86628ZM2.28871,23.92256A21.62878,21.62878,0,1,0,24.01428,2.27187,21.59852,21.59852,0,0,0,2.28871,23.92256ZM62.69646,63.17426a3.08337,3.08337,0,0,0-.91556-2.19333q-5.93892-6.59768-11.88263-13.191a18.5192,18.5192,0,0,0-1.92041-1.92521,1.687,1.687,0,0,0-2.55973.1133c-.61369.55509-1.22256,1.11553-1.83892,1.66764a1.699,1.699,0,0,0-.42344,2.39971,4.91247,4.91247,0,0,0,.65636.9387q4.16376,4.649,8.34559,9.28185c1.63692,1.815,3.24379,3.65955,4.94062,5.417a3.04535,3.04535,0,0,0,3.73776.61507A3.17372,3.17372,0,0,0,62.69646,63.17426ZM44.44178,44.37959a1.46208,1.46208,0,0,0-.16482-.35976q-1.5764-1.75633-3.16632-3.5005a.4498.4498,0,0,0-.72875-.0231c-.54776.50589-1.10212,1.00559-1.67192,1.48632-.345.2911-.329.53518-.03388.856,1.01041,1.0985,2.00679,2.21,3.00018,3.324.263.2949.52259.35653.827.07995.56678-.515,1.13511-1.02833,1.69684-1.54879A2.27877,2.27877,0,0,0,44.44178,44.37959Z"/>
            <path class="cls-1" d="M14.42233,23.34266l2.75843-2.76705,4.57191,4.59831,8.744-8.74723,2.88415,2.87283L21.88739,30.79359Z"/>
          </g>
        </g>
      </g>
    </g>
  </g>
</svg>
