<svg xmlns="http://www.w3.org/2000/svg" viewBox="0 0 73.24557 74.77598">
  <defs>
    <style>
      .cls-1 {
        fill: #f8f7fc;
      }
    </style>
  </defs>
  <title>Recurso 19</title>
  <g id="Capa_2" data-name="Capa 2">
    <g id="Capa_1-2" data-name="Capa 1">
      <g>
        <path class="cls-1" d="M12.87693,23.73542C13.57864,13.67753,18.094,6.33149,27.17039,2.10983A23.75569,23.75569,0,0,1,54.89711,8.2391a23.35458,23.35458,0,0,1,5.86459,16.11,23.03262,23.03262,0,0,1-2.03249,8.18653,83.61109,83.61109,0,0,1-6.52548,12.4671,169.29009,169.29009,0,0,1-9.98185,14.54887,6.72111,6.72111,0,0,1-5.919,2.86294,6.93247,6.93247,0,0,1-5.40422-3.08429,150.82169,150.82169,0,0,1-14.17156-22.909,39.62774,39.62774,0,0,1-3.28074-8.86883C13.16388,26.24581,13.04644,24.90347,12.87693,23.73542Zm44.68071-.02517a18.57936,18.57936,0,0,0-3.72139-11.66012C48.79159,5.18267,41.9011,2.238,33.53052,3.49239A19.85949,19.85949,0,0,0,18.5317,14.30194,18.02782,18.02782,0,0,0,17.14049,29.129a64.38979,64.38979,0,0,0,4.58642,10.09078,164.761,164.761,0,0,0,9.98622,15.85963,27.5039,27.5039,0,0,0,2.43524,3.13875,3.26653,3.26653,0,0,0,3.3102.95135,4.39731,4.39731,0,0,0,2.55991-1.881c2.424-3.45932,4.893-6.88926,7.23282-10.405a94.32408,94.32408,0,0,0,8.30988-14.94811A18.8911,18.8911,0,0,0,57.55764,23.71024Z"/>
        <path class="cls-1" d="M53.292,46.377c.50836-.82578.94276-1.5805,1.42815-2.30087.27668-.41062.72757-.289,1.109-.17553.98607.29338,1.96813.60293,2.94109.93719a32.09388,32.09388,0,0,1,9.27044,4.77471,15.22188,15.22188,0,0,1,3.89824,4.20129,8.53542,8.53542,0,0,1-.72556,10.06478,21.9076,21.9076,0,0,1-8.50315,6.21063,55.20844,55.20844,0,0,1-11.50714,3.45826,79.60325,79.60325,0,0,1-21.13789.95338A59.61466,59.61466,0,0,1,12.979,70.81611a27.569,27.569,0,0,1-8.13015-4.47982,14.31752,14.31752,0,0,1-3.80466-4.4206c-1.81067-3.57151-1.19393-6.869,1.28754-9.88826a21.24976,21.24976,0,0,1,7.51076-5.57679,52.60209,52.60209,0,0,1,7.964-2.88377.761.761,0,0,1,1.00278.37106c.342.58788.695,1.16942,1.0471,1.75135.22636.37412.08694.55413-.3.67643-1.66358.52573-3.33313,1.036-4.97941,1.61224a24.1162,24.1162,0,0,0-8.34012,4.48246c-.57171.50946-1.08,1.09185-1.60226,1.65475a6.065,6.065,0,0,0-.22625,7.33356,17.54921,17.54921,0,0,0,5.94841,4.71165,49.19161,49.19161,0,0,0,12.78533,4.22417A76.47287,76.47287,0,0,0,39.04448,71.5732a61.43216,61.43216,0,0,0,17.40369-2.55573,32.623,32.623,0,0,0,8.95706-3.99407,11.6956,11.6956,0,0,0,3.82393-3.8171,5.50416,5.50416,0,0,0-.11284-5.99869,13.28777,13.28777,0,0,0-4.53193-4.20213,36.86541,36.86541,0,0,0-8.07646-3.56157c-.84576-.27642-1.70028-.52592-2.5485-.795C53.76531,46.58733,53.58069,46.49577,53.292,46.377Z"/>
        <path class="cls-1" d="M47.69039,23.61929a10.82561,10.82561,0,0,1-21.65085-.12449,10.82574,10.82574,0,1,1,21.65085.12449ZM36.86984,31.09994c4.21082.33494,7.74976-3.62109,7.71188-7.66252-.04127-4.40277-3.41346-7.51137-8.28006-7.5281-3.76256-.01293-7.06554,3.54389-7.13825,7.56486C29.09088,27.4846,32.86822,31.51123,36.86984,31.09994Z"/>
      </g>
    </g>
  </g>
</svg>
