<svg xmlns="http://www.w3.org/2000/svg" viewBox="0 0 77.59702 93.0711">
  <defs>
    <style>
      .cls-1 {
        fill: #f8f7fc;
      }
    </style>
  </defs>
  <title>Recurso 20</title>
  <g id="Capa_2" data-name="Capa 2">
    <g id="Capa_1-2" data-name="Capa 1">
      <g id="_04pYhT.tif" data-name="04pYhT.tif">
        <g>
          <path class="cls-1" d="M40.83475,46.24642V43.46287c-.42708-.02425-.82609-.06632-1.22514-.06665-5.7467-.00475-11.495-.08681-17.23959.022a7.19447,7.19447,0,0,1-7.643-7.64053c.06249-9.4518.01192-18.90431.02195-28.35651.004-3.7977,2.06167-6.48158,5.5639-7.26647A8.1911,8.1911,0,0,1,22.08818.00742q24.11728-.011,48.23456-.0018a6.88886,6.88886,0,0,1,7.269,7.26932q.00995,14.36673.00094,28.73347c-.00288,4.47572-2.86755,7.362-7.35327,7.37863q-8.47862.0315-16.95729-.01513c-.93087-.00665-1.26021.20721-1.21872,1.195.08294,1.97489.0445,3.956.01275,5.93389a.97456.97456,0,0,0,.73649,1.12035c.56573.18045,1.11032.43,1.65793.66387,1.30071.5555,1.53336,1.165.94493,2.43058-.11747.25266-.223.51087-.338.77561,5.25866,1.13465,6.17981,6.55308,3.17009,9.61756,2.31107,3.53112,2.31423,5.23158-.02592,8.28594A5.93177,5.93177,0,0,1,59.97,77.49159a5.61429,5.61429,0,0,1-1.56509,3.86819,18.98386,18.98386,0,0,1,1.45362,3.62805,5.29965,5.29965,0,0,1-5.17578,6.1727c-7.53612.05487-15.07385.07653-22.609-.02831-2.33866-.03254-4.66857-.539-7.00727-.78251-1.341-.13963-2.691-.21855-4.03859-.24851a1.02265,1.02265,0,0,0-.7761.53276,3.30988,3.30988,0,0,1-3.29931,2.32636c-2.009.04652-4.01826.09157-6.02766.11053A3.13815,3.13815,0,0,1,7.595,90.71633.79639.79639,0,0,0,6.6729,90.047c-1.664.02518-3.32857.015-4.99288.00683C.60894,90.04855.00961,89.55769.00192,88.70718-.00581,87.85273.5926,87.32673,1.657,87.3169c1.84964-.01709,3.69956-.00476,5.61475-.00476a7.0269,7.0269,0,0,0,.08-.77059c-.067-6.53121-.14832-13.06229-.19776-19.59362-.00514-.67923-.24962-.851-.88427-.83573-1.53785.037-3.07722.0195-4.61589.00986C.58965,66.11539-.00653,65.60868.00005,64.74825c.00653-.85348.60146-1.356,1.6808-1.36518,1.756-.01494,3.51214-.004,5.31578-.004.1062-.362.19342-.68483.29548-1.00287a2.95823,2.95823,0,0,1,2.82072-2.2448c2.2571-.11,4.51924-.15429,6.77921-.153a3.36887,3.36887,0,0,1,2.91829,1.895A17.30893,17.30893,0,0,0,21.09508,59.728a32.81026,32.81026,0,0,0,1.26213-3.6377,9.74738,9.74738,0,0,1,7.07268-7.01079c2.85059-.854,5.68477-1.766,8.55151-2.56106A16.314,16.314,0,0,1,40.83475,46.24642Zm8.52614,3.92837c0-2.64253-.00173-5.088.00063-7.53339.00153-1.5823.34915-1.93416,1.92863-1.9348,6.24972-.00256,12.50053-.06921,18.74867.03a4.576,4.576,0,0,0,4.85967-4.83089q-.15792-14.225-.00189-28.45269a4.53649,4.53649,0,0,0-4.79342-4.78937c-15.9539.05151-31.908.02123-47.86211.02759-3.10853.00124-4.76017,1.67655-4.76056,4.78392q-.00177,14.17965.00006,28.35929c-.00011,3.21922,1.64464,4.869,4.86882,4.8702q9.70434.00347,19.40868.00215c1.44613.0007,1.90478.47986,1.89448,1.92274-.01077,1.50735-.03107,3.01528.00439,4.52174a1.05061,1.05061,0,0,0,.40674.80677C45.74763,48.7065,47.46044,49.39,49.36089,50.1748ZM37.96713,58.55847c-.544-.14145-.97679-.215-1.37966-.3675a1.24124,1.24124,0,0,1-.85656-1.48676,1.21265,1.21265,0,0,1,1.31491-1.09258,5.22329,5.22329,0,0,1,.92791.1282c3.10278.62376,6.20108,1.27034,9.30764,1.87447a4.467,4.467,0,0,0,5.07548-3.21718c-.27023-.118-.55021-.24606-.83458-.3635-3.82365-1.57919-7.64018-3.17622-11.48152-4.71121a2.7826,2.7826,0,0,0-1.68113-.07447c-2.92008.83969-5.80973,1.78471-8.72605,2.63815A6.24076,6.24076,0,0,0,25.211,56.11938c-.39827,1.18789-.73011,2.39911-1.15833,3.57563-.65,1.78587-1.43354,3.52488-3.14911,4.54822a1.45715,1.45715,0,0,0-.80478,1.4895c.09983,6.84394.16638,13.68834.247,20.53257.0039.331.05069.66146.08356,1.06686,5.916.06941,11.6425,1.68925,17.59758.98273a5.59589,5.59589,0,0,1,.97442-6.557L37.10267,77.823a3.21685,3.21685,0,0,1-.27207.46378,15.43749,15.43749,0,0,1-6.87927,4.5976,1.36577,1.36577,0,0,1-1.881-.70054,1.34609,1.34609,0,0,1,.85206-1.82091c.54024-.24957,1.10629-.4432,1.6469-.692a10.7721,10.7721,0,0,0,6.59092-8.6518c.30233-2.11075.28007-4.28153,2.0418-5.83843A5.72163,5.72163,0,0,1,37.96713,58.55847ZM17.69246,76.52793l-.34363.00025c0-4.26817-.01295-8.53641.01182-12.80443.00451-.7767-.25857-1.05252-1.04276-1.02516-1.756.06126-3.51477.0428-5.27226.06707-1.14784.01585-1.26789.12736-1.25276,1.22969.02971,2.1654.08943,4.33041.11595,6.49583.07648,6.2454.15591,12.49084.19751,18.7365.00579.86864.28682,1.15493,1.15605,1.11716,1.72368-.0749,3.4517-.0472,5.17783-.06934,1.17991-.01513,1.25315-.10108,1.25275-1.31966Q17.69095,82.74189,17.69246,76.52793Zm31.04372-9.999c-1.94723,0-3.8946-.01511-5.84163.00473a2.73316,2.73316,0,1,0,.03226,5.46411q5.74737.02072,11.49488.00025a2.73617,2.73617,0,1,0-.03231-5.46643C52.50508,66.51794,50.62059,66.52843,48.73618,66.52892Zm-.10851,13.63543c1.97717,0,3.95442.01112,5.93148-.00358a2.65545,2.65545,0,0,0,2.70764-2.6487A2.68952,2.68952,0,0,0,54.526,74.78539q-5.83734-.0134-11.67472-.0002a2.68129,2.68129,0,0,0-2.7506,2.7145,2.64185,2.64185,0,0,0,2.68965,2.66073C44.736,80.17593,46.68188,80.16417,48.62767,80.16435Zm.09074,2.85938c-1.97737,0-3.9549-.015-5.93208.00483a2.64639,2.64639,0,0,0-2.68625,2.66932,2.68747,2.68747,0,0,0,2.65953,2.72046q5.8378.02935,11.67581.00939a2.739,2.739,0,0,0,2.83646-2.7512,2.76976,2.76976,0,0,0-2.81064-2.67468C52.55082,83.09117,50.633,83.02268,48.71841,83.02373Zm-.01725-19.28128c1.91506,0,3.83014.00409,5.74518-.00139a2.61861,2.61861,0,0,0,2.69206-1.90792,2.69162,2.69162,0,0,0-1.08639-3.06,3.2099,3.2099,0,0,0-3.433-.01975,6.98965,6.98965,0,0,1-5.54911,1.5401c-1.82645-.25865-3.64087-.63256-5.43824-1.05152a.99793.99793,0,0,0-1.31055.69609,2.70378,2.70378,0,0,0,2.44657,3.79885C44.74529,63.75732,46.72331,63.74142,48.70116,63.74245Z"/>
          <path class="cls-1" d="M54.68847,19.49344l-8.50112-9.42576L37.732,19.43586c.54733.02523.89685.05645,1.24625.05518,4.97374-.01815,4.48647-.33154,4.48895,4.52927q.00252,4.94429-.00235,9.88857a4.13215,4.13215,0,0,1-.04753.93664,1.29222,1.29222,0,0,1-1.32876,1.10854,1.31185,1.31185,0,0,1-1.35032-1.19592,4.57777,4.57777,0,0,1-.024-.84556q-.00218-5.27391-.00168-10.54781c0-.33736,0-.67473,0-1.13941-1.6551,0-3.21388.00046-4.77266-.00028-.47086-.00022-.9445.02832-1.412-.01231a1.31612,1.31612,0,0,1-1.05074-2.05984,4.92291,4.92291,0,0,1,.58913-.73116Q39.362,13.54558,44.66316,7.6743c1.245-1.37876,1.84951-1.34092,3.09324.04827q5.24494,5.85836,10.52851,11.68213c.16805.18634.41995.35433.47707.57178.12652.48159.34973,1.085.16666,1.45937a1.70587,1.70587,0,0,1-1.24862.75273c-1.596.09-3.2.03691-4.801.03778-1.25156.00068-1.253.00056-1.25347,1.21393q-.00192,5.22681-.00353,10.45362c-.00034.34468.10571.79345-.06737,1.01178a2.69675,2.69675,0,0,1-1.27316,1.01144,1.11035,1.11035,0,0,1-1.28254-.97579,3.60192,3.60192,0,0,1-.0567-.84284q-.00362-6.35693.002-12.71386c.00217-1.47652.41741-1.881,1.91253-1.88981C52.03283,19.48791,53.209,19.49344,54.68847,19.49344Z"/>
        </g>
      </g>
    </g>
  </g>
</svg>
