<svg xmlns="http://www.w3.org/2000/svg" viewBox="0 0 77.16512 89.94544">
  <defs>
    <style>
      .cls-1 {
        fill: #f8f7fc;
      }
    </style>
  </defs>
  <title>Recurso 21</title>
  <g id="Capa_2" data-name="Capa 2">
    <g id="Capa_1-2" data-name="Capa 1">
      <g>
        <path class="cls-1" d="M43.29171,53.6479V48.65478c.24392-.01134.45917-.03.67442-.03009q9.92-.00227,19.84-.00126c1.3088,0,2.61785.0149,3.92634-.00541a3.93638,3.93638,0,0,0,3.90035-3.90869q.01136-17.911-.00048-35.82192a3.90323,3.90323,0,0,0-3.95687-3.979c-4.215-.03224-8.43042-.01544-12.64565-.01563q-22.53852-.001-45.077-.00783A4.27211,4.27211,0,0,0,6.73588,6.03871,3.85875,3.85875,0,0,0,5.54218,8.89438q.00956,15.04787.00122,30.09574C5.54322,40.81007,5.53921,42.63,5.54468,44.45A3.94037,3.94037,0,0,0,9.7138,48.62229q10.98414.00279,21.96828.00115h.83739v5.01546c-.23912.011-.474.03122-.70878.0313q-11.21931.00355-22.43862.00331c-.77538,0-1.55136-.02255-2.326.00012A6.73641,6.73641,0,0,1,.01887,46.90335C.00245,41.51155.04877,36.11959.048,30.7277.0471,24.11578.01927,17.50386.01677,10.89193A46.24615,46.24615,0,0,1,.12166,5.84514a6.6146,6.6146,0,0,1,6.672-5.8399Q33.42439-.00063,60.05513,0q5.02458-.0003,10.04917.003a6.68874,6.68874,0,0,1,7.03832,6.82462c.05245,8.07341-.003,16.14748-.00428,24.22128q-.00121,7.75528.026,15.51055a6.79585,6.79585,0,0,1-5.50659,7.00445,4.91573,4.91573,0,0,1-1.05488.10487q-13.41657.0074-26.83315.0017C43.63729,53.67046,43.50485,53.65833,43.29171,53.6479Z"/>
        <path class="cls-1" d="M33.52759,63.40857q0-.32217,0-.64434c-.00759-5.70367.02773-11.40787-.04118-17.1108a4.43156,4.43156,0,0,1,5.73558-4.31082A4.48362,4.48362,0,0,1,42.29443,45.64c.01982,2.79626.01805,5.59266.0254,8.389.00057.218.00007.436.00007.743a11.58774,11.58774,0,0,1,1.54837.01077,4.20145,4.20145,0,0,1,3.3156,2.37758c.15288.30081.28459.45472.64417.38366a4.57307,4.57307,0,0,1,5.11256,2.80181c.01689.03651.05894.06136-.03075-.02824a15.75683,15.75683,0,0,1,2.61241.24541,4.37476,4.37476,0,0,1,3.12969,4.39105c.04631,3.59193.093,7.19437-.128,10.77587a9.17555,9.17555,0,0,1-3.52326,7.041,1.29594,1.29594,0,0,0-.41614.88359c-.06323,1.72926-.06973,3.46063-.09345,5.1913-.0048.35049-.00069.7011-.00069,1.0996H35.38919c-.025-.39632-.03769-.78838-.07627-1.17788-.18328-1.85057-.31182-3.70982-.591-5.546a7.64633,7.64633,0,0,0-.862-2.20689,60.94005,60.94005,0,0,0-7.92147-11.92175,7.64559,7.64559,0,0,1-2.1095-4.63837,4.21968,4.21968,0,0,1,4.48747-4.42666,4.77561,4.77561,0,0,1,3.68378,1.82851c.44971.54317.90892,1.07848,1.36383,1.61735ZM51.64481,86.95976c0-1.307.05413-2.52789-.01672-3.74151a2.58,2.58,0,0,1,1.08466-2.35178,6.24283,6.24283,0,0,0,2.509-3.49139,16.042,16.042,0,0,0,.53435-3.2021c.0714-2.94948.02637-5.9019.01389-8.8531a3.19808,3.19808,0,0,0-.1529-.84766,1.41156,1.41156,0,0,0-1.85974-1.12506c-.4123.07513-.54448.25811-.53236.67038.028.95351.01223,1.9084.00882,2.86272-.0024.66926-.25865.95778-.93782,1.02525a5.55987,5.55987,0,0,1-.93032.00886c-.80954-.05619-1.05279-.31974-1.05494-1.1141-.00427-1.57572.00735-3.15161-.01353-4.72709a1.72921,1.72921,0,0,0-1.3954-1.70543.88152.88152,0,0,0-1.151.94185c-.0044.88745.0024,1.775-.00228,2.66243-.00435.82419-.48981,1.23135-1.45353,1.22973-.98579-.00165-1.45553-.39111-1.45622-1.21245-.00119-1.41781.02624-2.83628-.0096-4.25317a1.93994,1.93994,0,0,0-1.05251-1.99094.96144.96144,0,0,0-1.4643.92617c-.00141.88775-.04857,1.779.01507,2.66214.05107.70866-.3357.96761-.89877,1.08167a3.47829,3.47829,0,0,1-.99347.02053c-.84465-.07739-1.05407-.32816-1.05464-1.18265Q39.37608,54.595,39.3662,47.937a22.46147,22.46147,0,0,0-.101-2.72273,1.384,1.384,0,0,0-2.09486-.95622,1.58983,1.58983,0,0,0-.74094,1.58721c.01,6.192.03295,12.38406.00133,18.57587a27.35325,27.35325,0,0,1-.37466,3.43021,1.32379,1.32379,0,0,1-1.1916,1.166,1.4328,1.4328,0,0,1-1.47654-.67359c-.8796-1.16827-1.76082-2.33633-2.679-3.47411a12.2147,12.2147,0,0,0-1.54864-1.63319,1.54915,1.54915,0,0,0-1.8048-.04615,1.1949,1.1949,0,0,0-.48438,1.62166,12.38525,12.38525,0,0,0,1.47347,2.56573A64.793,64.793,0,0,1,35.773,78.35826a14.59643,14.59643,0,0,1,1.953,4.70118c.18268,1.28923.32855,2.58367.4939,3.90031Z"/>
        <path class="cls-1" d="M37.60133,8.38922c7.945.32966,13.77638,3.48094,17.69034,9.7948a19.85685,19.85685,0,0,1-1.45345,22.91531A43.20278,43.20278,0,0,1,49.88638,44.92a.74318.74318,0,0,1-1.23836-.08907c-.33246-.38406-.73859-.70338-1.09887-1.06456-.46558-.46673-.43956-.65592.1089-1.03564a17.24979,17.24979,0,0,0,5.58725-6.30482,17.07179,17.07179,0,1,0-29.66066,1.2A17.45909,17.45909,0,0,0,28.418,42.68836c.60875.4301.62485.65228.06685,1.18817-.35171.33777-.72518.65528-1.054,1.01387a.731.731,0,0,1-1.148.06409c-5.97288-4.56224-8.85793-10.6099-8.27655-18.089A19.94278,19.94278,0,0,1,33.40246,9.02439C34.94668,8.66157,36.54843,8.54361,37.60133,8.38922Z"/>
        <path class="cls-1" d="M24.10182,28.72346c.21449-4.80651,1.9561-8.31938,5.28347-11.004a13.33387,13.33387,0,0,1,9.92956-2.97228A13.31415,13.31415,0,0,1,49.77914,21.09,13.3502,13.3502,0,0,1,51.001,33.73541a13.7748,13.7748,0,0,1-5.47382,6.65374c-.89979.58928-.92788.59107-1.68768-.135-.32069-.30646-.64635-.60775-.966-.91526-.47918-.46092-.44709-.75661.14358-1.05934a11.15534,11.15534,0,0,0,4.4087-4.13092A10.8665,10.8665,0,0,0,46.579,21.87266a10.58476,10.58476,0,0,0-11.31589-3.7606,10.14728,10.14728,0,0,0-6.89663,5.62237,10.58966,10.58966,0,0,0,.37146,10.43371,10.27907,10.27907,0,0,0,4.288,4.05768c.69259.358.73792.64988.16495,1.18276-.37311.347-.755.68681-1.10277,1.05817a.77365.77365,0,0,1-1.11067.16065A13.76839,13.76839,0,0,1,24.10182,28.72346Z"/>
        <path class="cls-1" d="M38.06859,20.92223a7.70314,7.70314,0,1,1-7.7296,7.56949A7.69756,7.69756,0,0,1,38.06859,20.92223Zm4.55987,7.73629a4.49734,4.49734,0,0,0-4.55411-4.62993,4.38024,4.38024,0,0,0-4.56957,4.51117,4.56228,4.56228,0,1,0,9.12368.11877Z"/>
      </g>
    </g>
  </g>
</svg>
