<?xml version="1.0" encoding="utf-8"?>
<!-- Generator: Adobe Illustrator 21.0.2, SVG Export Plug-In . SVG Version: 6.00 Build 0)  -->
<svg version="1.1" id="Capa_1" xmlns="http://www.w3.org/2000/svg" xmlns:xlink="http://www.w3.org/1999/xlink" x="0px" y="0px"
	 viewBox="0 0 100.9 85" style="enable-background:new 0 0 100.9 85;" xml:space="preserve">
<style type="text/css">
	.st0{fill:#F8F7FC;}
</style>
<g id="Capa_2">
	<g id="Capa_1-2">
		<g id="unAERc.tif">
			<g id="CxZf9J.tif">
				<g>
					<path class="st0" d="M100.4,50.6c-0.4,1.5-0.9,2.9-1.6,4.3c-2.5,5.4-8.1,8.8-14.1,8.7c-1.4-0.1-3-0.6-3.3-2
						c-0.2-1.3,1.1-2.3,2.3-2.7c2.2-0.8,4.6-0.8,6.7-1.7c2.7-1.1,4.6-3.5,5.2-6.3c0.3-1.2,0.1-2.5-0.6-3.5c-1.4,0.6-1.8,2.4-2.1,4
						s-1.1,3.3-2.6,3.5c-0.7,0-1.4-0.2-2-0.5L80,50.6l1.6-4.8c-1.6-0.6-3.4-0.8-5-1.3c-1.7-0.4-3.2-1.5-4-3
						c-0.6-1.5-0.7-3.1-0.4-4.6l1.1-9.3c0-1.2,0.3-2.3,0.9-3.4c0.6-1.1,1.8-1.6,2.9-1.4c0.9,0.3,1.5,1.1,1.7,2
						c0.2,0.9,0.2,1.8,0,2.7l-0.8,8.7c-0.2,0.9-0.1,1.8,0.4,2.5c0.5,0.6,1.3,1,2.1,1c2.3,0.2,4.5-0.6,6.7-0.9
						c3.3-0.5,6.7-0.1,9.8,1.3C101.1,42.1,101.4,46.6,100.4,50.6z"/>
					<path class="st0" d="M100.4,31c-0.6,3.1-2.7,5.6-6.1,5.5c-2.9-0.1-6-2-6.6-5c-0.6-3,1.1-6.6,3.6-7.6c3.3-1.3,7.2,0.5,8.8,3.6
						c0.2,0.4,0.3,0.8,0.4,1.2c0.1,0.6,0.1,1.1,0,1.7C100.5,30.6,100.5,30.8,100.4,31z"/>
					<path class="st0" d="M49,85c-12.9,0-23.3-1.7-32.5-5.2c-3.4-1.3-6.6-3-9.5-5.2c-3.3-2.5-5-5.4-5-8.4c0-3.1,1.7-6.1,4.9-8.8
						c4-3.3,9-5.5,15.8-7.2c18.2-4.7,37.5-4.5,55.6,0.6c1.9,0.6,3.8,1.3,5.6,2.1c0.6,0.2,1.8,0.9,3.2,1.6c1.3,0.6,2.5,1.3,3.4,1.7
						l0.3,0.2l3.6,2.9l0,0l0.6,0.5c1.3,1.1,1.3,7,1.3,7c-0.4,4.3-3.8,7.4-5.3,8.6c-4.6,3.6-10.3,5.3-16.3,6.9
						C67.5,84.1,59.4,85,49.1,85C49.1,85,49,85,49,85z M49.3,49.8c-8.7,0-17.5,1.1-26,3.3c-6.4,1.6-10.9,3.6-14.6,6.6
						c-2.5,2.1-3.9,4.3-3.8,6.4c0,2.1,1.4,4.2,3.8,6.1c2.7,2,5.7,3.6,8.8,4.8c8.8,3.4,18.8,5,31.4,5c0,0,0.1,0,0.1,0
						c10,0,17.9-0.9,24.9-2.7c5.7-1.5,11.1-3.1,15.2-6.3c2.4-1.9,4-4.3,4.2-6.5c0-0.6-0.2-3.6-0.5-4.7l-3.8-3
						c-0.9-0.4-2.2-1.1-3.4-1.7c-1.2-0.6-2.5-1.3-3.1-1.5c-1.8-0.8-3.5-1.4-5.3-2C68.3,51.1,58.8,49.8,49.3,49.8z"/>
					<path class="st0" d="M57.9,46H37.8c0-1.6,0-3.2,0-4.8c0.1-3.3-0.9-6.5-2.9-9.2c-3.6-5-5.6-11-5.5-17.2c0-1.9,0.3-3.8,2.4-4.6
						c0.2-0.1,0.4-0.1,0.7-0.1c0.3,0.1,0.5,0.2,0.7,0.4c2.2,1.9,1.2,5,1.4,7.6c0.3,3.2,1.4,6.3,3.3,8.9c1.3,1.8,3.1,3.3,5.1,4.2
						c2.3,0.9,4.9,0.8,7.3,0.7c1.6,0,3.3-0.2,4.8-0.7c1.6-0.7,2.8-1.9,3.6-3.5c1.3-2.3,2.2-4.8,2.7-7.4c0.2-1.3,0.4-2.7,0.4-4.1
						c0-1.3-0.2-2.7,0-4c0.1-0.6,0.3-1.2,0.8-1.6c0.5-0.4,1.1-0.5,1.6-0.5c2.3,0.1,2.4,2.5,2.6,4.3c0.9,7.2-1.2,14.4-5.7,20
						C58.9,37,57.8,40.4,58,44C58,44.5,57.9,45.1,57.9,46z"/>
					<path class="st0" d="M31.9,46.7c-0.1,0.1-0.3,0.2-0.4,0.3c-1.1,0.5-2.3,0.6-3.5,0.3c-1.1-0.5-1.6-1.7-2.2-2.8
						c-0.6-1.3-1.4-2.6-2.2-3.8c-0.2-0.3-0.5-0.6-0.8-0.4c-0.1,0.1-0.2,0.3-0.2,0.5c0,0.5,0.1,1,0.3,1.5c0.6,1.9,1.4,3.8,1.9,5.8
						c-2.5,1.1-5.1,2.1-7.7,2.8l-8,2.9l-2.8-9.6c-1,1.7-1.2,3.7-0.6,5.5c0.5,1.8,1.4,3.5,2,5.4l-4.2,3.7c-2.9-4.1-4-9.1-3.3-14
						c0.3-2.3,1.2-4.6,2.6-6.4c1.7-1.8,3.8-3.1,6.2-3.9c2.8-1.1,5.7-1.8,8.7-1.8c3,0,5.9,1,8.3,2.9c1.6,1.5,2.8,3.3,3.6,5.3
						c0.5,1,0.9,2,1.3,3C31.1,44.5,32.5,46,31.9,46.7z"/>
					<path class="st0" d="M54.9,22.2c0,4.5-2.2,6.7-6.8,6.8c-3.6,0.1-6.6-2.7-6.8-6.3c0-0.2,0-0.3,0-0.5c0-4.2,2.4-6.8,6.4-6.8
						C52.1,15.4,54.9,18,54.9,22.2z"/>
					<path class="st0" d="M5,25c0-4.4,2.5-7,6.5-6.9c3.8-0.2,6.9,2.7,7.1,6.5c0,0.2,0,0.4,0,0.6c0,4.4-2.4,6.6-7.1,6.5
						C8,31.8,5.1,29.1,5,25.6C4.9,25.4,4.9,25.2,5,25z"/>
					<path class="st0" d="M46.3,7.5C46.3,7.6,46.3,7.6,46.3,7.5c0,0.3,0,0.5-0.1,0.7c-0.7,1.3-2.2-0.6-2.4-1.3
						c-0.7-1.9-1.3-3.8-1.8-5.8c-0.2-0.7,0.8-1.4,1.4-1.1C43.7,0.3,44,0.6,44.1,1c0.4,1.2,0.9,2.4,1.4,3.6
						C45.9,5.6,46.2,6.5,46.3,7.5z"/>
					<path class="st0" d="M42.1,9.5c0,0,0,0.1,0,0.1c-0.1,0.6-0.5,1-1.1,1.1c-0.4,0-0.8-0.2-1.1-0.5c-0.8-0.8-1.6-1.7-2.5-2.5
						c-0.5-0.4-0.8-1-1-1.6c-0.1-0.5,0-1,0.4-1.4c0.4-0.3,0.5-0.1,0.8,0.2c0.6,0.5,1.2,1,1.7,1.6c0.6,0.6,1.2,1.2,1.8,1.8
						C41.5,8.7,42,9,42.1,9.5z"/>
					<path class="st0" d="M51.9,2.3c0,0,0.1-0.1,0.1-0.1c0.5-0.2,1.1-0.1,1.5,0.3c0.2,0.3,0.3,0.8,0.1,1.2c-0.3,1.1-0.6,2.3-0.9,3.4
						c-0.1,0.6-0.4,1.2-0.8,1.7c-0.4,0.4-0.9,0.5-1.3,0.4c-0.4-0.2-0.3-0.4-0.3-0.8c0.1-0.8,0.3-1.5,0.5-2.3
						c0.2-0.8,0.4-1.6,0.6-2.5C51.6,3.2,51.6,2.6,51.9,2.3z"/>
					<path class="st0" d="M60.6,6.3c0,0.1-0.1,0.3-0.2,0.4c-0.8,1-1.6,1.9-2.4,2.9c-0.5,0.6-1.1,1.8-2,1.8c-0.3,0-0.6-0.2-0.7-0.5
						c-0.5-1.2,1.3-2.9,2-3.8c0.5-0.6,1.1-1.7,1.9-1.9c0.6-0.1,1.2,0.3,1.4,1C60.6,6.2,60.6,6.3,60.6,6.3z"/>
					<path class="st0" d="M50.5,54l9.3-1.7c0.7,3.7,1.4,7.3,2.1,11.1l-9.4,1.8L50.5,54z"/>
					<path class="st0" d="M40.7,62.5l8.9,3.1L46,76.3l-9-3.1L40.7,62.5z"/>
					<path class="st0" d="M42.5,67.7l9.5-0.1c0.1,3.8,0.1,7.4,0.2,11.3l-9.5,0.1L42.5,67.7z"/>
					<path class="st0" d="M25.5,72.4l-8.7-7.3l6.1-7.3l8.7,7.3L25.5,72.4z"/>
					<path class="st0" d="M75.4,61.2l7.5,5.8L76,76l-7.5-5.8L75.4,61.2z"/>
				</g>
			</g>
		</g>
	</g>
</g>
</svg>
